<svg xmlns="http://www.w3.org/2000/svg" viewBox="0 0 415.67 385.82"><path d="M251.48,35.43l-185,185c-26.17,26.16-62.62,47.61-62,100a46.85,46.85,0,0,0,9,26c16.16,26.68,59.1,44,94,23,18.73-11.26,32.87-29.87,48-45l89-89c16.36-16.37,70.5-56.61,63-82-4.75-3.33-7.73-5.79-16-6-21.58,9.62-38.85,35.84-55,52l-117,117c-17.78,17.78-55.57,48.88-78,14-20-31.13,28.87-68.88,44-84l181-179c16.57-13.4,39.12-49,74-41,27.17,6.24,56.77,42.42,44,79-11.1,31.77-53.6,76.14-79,95q.5,22.5,1,45c31.89-23.79,91.32-86.48,107-125,23.92-58.8-21-113-64-125C306.82-16.45,270.16,17.16,251.48,35.43Z" transform="translate(-4.47 7.05)" fill="#020202" fill-rule="evenodd"/><path d="M200.48,42.43c-3.91-2.69-9-7.76-17-6-7.67,1.7-49.75,43.45-52,51,9.43-.34,36.45-3.14,40,3C185.22,80.45,207.15,63.63,200.48,42.43Z" transform="translate(-4.47 7.05)" fill="#020202" fill-rule="evenodd"/></svg>