<svg xmlns="http://www.w3.org/2000/svg" width="52.416" height="50" viewBox="0 0 52.416 50"><path d="M246.21,43.032a7.4,7.4,0,0,1,5.33,2.389,11.435,11.435,0,0,1-6.292,2.824c.681,3.475,4.308,4.7,7.354,5.294a18.767,18.767,0,0,0-6.051,3.8c2.064.923,4.148,1.846,6.212,2.742-1.683,1.412-3.386,2.8-5.07,4.208,2.044.9,4.088,1.819,6.131,2.715-1.683,1.412-3.386,2.851-5.07,4.263,1.984.407,3.987.815,5.971,1.222-12.964,3.638-26.309,4.941-39.574,6.217q-16.02,1.548-32.06,3.122c1.383-1.493,2.785-3.014,4.168-4.507-1.142-1.683-2.284-3.394-3.426-5.077,1.443.869,3.066-1.466,2.665-3.285s-1.9-2.987-3.286-3.937a7.685,7.685,0,0,0,3.507-3.991,11.976,11.976,0,0,1-3.406-3.611c1.122-.733,2.264-1.466,3.386-2.2l-4.508-3.258,3.607-3.991a6.461,6.461,0,0,0-3.707-2.661c9.438.163,18.835-1.222,28.213-2.606l40.1-5.946C249.016,38.851,247.613,40.941,246.21,43.032Z" transform="matrix(-0.105, 0.995, -0.995, -0.105, 108.008, -172.539)" fill="#e1e1e1" opacity="0.653"/></svg>