<svg xmlns="http://www.w3.org/2000/svg" width="457.632" height="719.401" viewBox="0 0 457.632 719.401"><g transform="matrix(-0.899, 0.438, -0.438, -0.899, 620.394, 483.546)"><path d="M314.258,777.8l-1.869.166-70.513,70.505-.174,1.852,1.794.523,133.6-58.354.831-.83L400.5,728.732l-.349-1.536-42.74-42.748-1.661-.307-59.525,25.971-.764.764L237.1,844.477l.515,1.8,1.869-.174,70.538-70.53.15-1.885a16.918,16.918,0,1,1,4.153,4.111Z" transform="translate(-237.1 -312.853)" fill="#616e7d"/><path d="M509.12,457.735,600.6,549.2c111.418-114.831,241.913-284.96,217.694-309.171S623.951,346.317,509.12,457.735Z" transform="translate(-283.195 -237.1)" fill="#82bfab"/><path d="M412.53,684.153c20.913,20.922,33.355,43.753,101.4-13.289l-88.138-88.1C368.786,650.8,391.634,663.24,412.53,684.153Z" transform="translate(-262.982 -295.673)" fill="#82bfab"/><path d="M521.268,665.755c7.658-6.42,16.038-13.862,25.2-22.425l-90.911-90.92q-12.849,13.754-22.425,25.207Z" transform="translate(-270.318 -290.53)" fill="#aad4c8"/><path d="M460.13,543.995l90.912,90.92c8.015-7.475,16.611-15.78,25.888-25.066,5.058-5.058,10.191-10.3,15.365-15.631L500.818,502.75c-5.324,5.158-10.573,10.3-15.639,15.365C475.885,527.417,467.613,535.98,460.13,543.995Z" transform="translate(-274.893 -282.115)" fill="#616e7d"/></g></svg>