<svg xmlns="http://www.w3.org/2000/svg" width="27.889" height="30.543" viewBox="0 0 27.889 30.543"><g transform="translate(-4 -2.003)"><path d="M30.5,8.644,19.319,2.359a2.832,2.832,0,0,0-2.749,0L5.388,8.644A2.7,2.7,0,0,0,4,10.989v12.57A2.7,2.7,0,0,0,5.388,25.9L16.57,32.188a2.819,2.819,0,0,0,2.749,0L30.5,25.9a2.7,2.7,0,0,0,1.388-2.345V10.989A2.7,2.7,0,0,0,30.5,8.644Zm-12.557,16.6a7.968,7.968,0,1,1,6.337-12.787l-2.91,1.683a4.648,4.648,0,1,0,0,6.272l2.91,1.683A7.922,7.922,0,0,1,17.944,25.241Zm7.968-7.3H24.584v1.328H23.256V17.937H21.928V16.609h1.328V15.281h1.328v1.328h1.328Zm4.648,0H29.232v1.328H27.9V17.937H26.576V16.609H27.9V15.281h1.328v1.328h1.328Zm0,0" fill="#c3272e"/></g></svg>