<svg xmlns="http://www.w3.org/2000/svg" width="28.142" height="31.104" viewBox="0 0 28.142 31.104"><path d="M318.788,423.868l-12.447-6.989a1.664,1.664,0,0,0-1.624,0c-2.483,1.395-9.958,5.589-12.445,6.987a1.572,1.572,0,0,0-.813,1.367v13.973a1.573,1.573,0,0,0,.811,1.362c2.489,1.4,9.964,5.6,12.448,6.993a1.67,1.67,0,0,0,1.624,0l12.446-6.988a1.571,1.571,0,0,0,.813-1.367V425.235A1.564,1.564,0,0,0,318.788,423.868Zm-13.258,18.72a10.368,10.368,0,1,1,8.918-15.638l-4.508,2.575a5.189,5.189,0,1,0,.044,5.307l4.555,2.507A10.358,10.358,0,0,1,305.53,442.588Z" transform="translate(-291.459 -416.667)" fill="#c3272e" fill-rule="evenodd"/></svg>