<svg xmlns="http://www.w3.org/2000/svg" width="36.745" height="22.04" viewBox="0 0 36.745 22.04"><path d="M.732,12a.749.749,0,0,0-.643.367.738.738,0,0,0,0,.735l4.8,8.4,3.857-6.727L7.689,13.01A2.128,2.128,0,0,0,5.875,12Zm11.732,0a.74.74,0,0,0-.643.367l-5.9,10.285a.745.745,0,0,0,0,.735l4.844,8.449a4.406,4.406,0,0,0,3.811,2.2h1.745l3.237-5.877H15.472L12.579,23.02,18.892,12Zm8.127,0-3.375,5.877h4.041L24.127,23l.069.023L18,34.04h6.245a.74.74,0,0,0,.643-.367l5.9-10.285a.738.738,0,0,0,0-.735L25.94,14.2A4.4,4.4,0,0,0,22.129,12ZM31.841,24.512l-3.857,6.727,1.056,1.768a2.132,2.132,0,0,0,1.814,1.01H36a.749.749,0,0,0,.643-.367.738.738,0,0,0,0-.735Z" transform="translate(0.008 -12)"/></svg>