<svg xmlns="http://www.w3.org/2000/svg" width="34.895" height="33.532" viewBox="0 0 34.895 33.532"><path d="M11.671,27.563c0,.139-.162.25-.366.25-.232.021-.394-.09-.394-.25,0-.139.162-.25.366-.25C11.489,27.292,11.671,27.4,11.671,27.563Zm-2.188-.312c-.049.139.091.3.3.34a.332.332,0,0,0,.436-.139c.042-.139-.091-.3-.3-.361A.363.363,0,0,0,9.483,27.251Zm3.11-.118c-.2.049-.345.18-.324.34.021.139.2.229.415.18s.345-.18.324-.319S12.8,27.112,12.593,27.133ZM17.222.563C7.464.563,0,7.864,0,17.481A17.4,17.4,0,0,0,11.925,34.066c.9.159,1.217-.388,1.217-.839,0-.43-.021-2.8-.021-4.257,0,0-4.925,1.04-5.959-2.066,0,0-.8-2.018-1.956-2.538,0,0-1.611-1.089.113-1.068a3.723,3.723,0,0,1,2.716,1.789,3.75,3.75,0,0,0,5.129,1.449A3.833,3.833,0,0,1,14.289,24.2c-3.933-.43-7.9-.992-7.9-7.662a5.217,5.217,0,0,1,1.66-4.084,6.463,6.463,0,0,1,.183-4.708C9.7,7.3,13.085,9.618,13.085,9.618a16.854,16.854,0,0,1,8.836,0s3.384-2.33,4.854-1.872a6.46,6.46,0,0,1,.183,4.708,5.355,5.355,0,0,1,1.815,4.084c0,6.691-4.144,7.225-8.076,7.662a4.069,4.069,0,0,1,1.2,3.217c0,2.337-.021,5.228-.021,5.8,0,.451.324,1,1.217.839A17.241,17.241,0,0,0,34.895,17.481C34.895,7.864,26.98.563,17.222.563ZM6.838,24.477c-.091.069-.07.229.049.361.113.111.274.159.366.069.091-.069.07-.229-.049-.361C7.091,24.435,6.93,24.387,6.838,24.477Zm-.76-.562c-.049.09.021.2.162.27a.211.211,0,0,0,.3-.049c.049-.09-.021-.2-.162-.27C6.24,23.825,6.128,23.846,6.078,23.915Zm2.279,2.468c-.113.09-.07.3.091.43.162.159.366.18.457.069.091-.09.049-.3-.091-.43C8.66,26.294,8.449,26.273,8.358,26.384Zm-.8-1.019c-.113.069-.113.25,0,.409s.3.229.394.159a.313.313,0,0,0,0-.43C7.851,25.344,7.668,25.274,7.556,25.365Z" transform="translate(0 -0.563)" fill="#c3272e"/></svg>