<svg xmlns="http://www.w3.org/2000/svg" viewBox="0 0 57.09 31.5"><path d="M0,0,2.45,27.83l11,3.67,11.08-3.67L27,0ZM21.67,9H8.75L9,12.47H21.38L20.43,22.9l-6.89,1.9v0h-.07L6.53,22.9,6.1,17.57H9.46l.24,2.68,3.76,1,3.78-1,.42-4.37H5.93L5,5.64H22L21.67,9Z" fill="#c3272e"/><path d="M30.09,0l2.45,27.83L43.59,31.5l11-3.67L57.09,0Zm22,5.63L51.76,9l-8.1,3.47h7.81l-.9,10.31-6.9,2-7-2.05-.45-5.2h3.44l.23,2.69,3.7.94,3.85-1.08.26-4.33-11.7,0h0l-.24-3.26,7.88-3.28L44.12,9H35.48l-.41-3.32Z" fill="#c3272e"/></svg>