<?xml version="1.0" encoding="utf-8"?>
<!-- Generator: Adobe Illustrator 24.1.3, SVG Export Plug-In . SVG Version: 6.00 Build 0)  -->
<svg version="1.1" id="Layer_1" xmlns="http://www.w3.org/2000/svg" xmlns:xlink="http://www.w3.org/1999/xlink" x="0px" y="0px"
	 viewBox="0 0 57.1 31.5" style="enable-background:new 0 0 57.1 31.5;" xml:space="preserve">
<style type="text/css">
	.st0{fill:#C3272E;}
</style>
<path class="st0" d="M0,0l2.5,27.8l11,3.7l11.1-3.7L27,0H0z M21.7,9H8.7L9,12.5h12.3l-1,10.4l-6.9,1.9v0h-0.1l-6.9-1.9l-0.4-5.3h3.4
	l0.2,2.7l3.8,1l3.8-1l0.4-4.4H5.9L5,5.6h17L21.7,9L21.7,9z"/>
<path class="st0" d="M30.1,0l2.5,27.8l11,3.7l11-3.7L57.1,0H30.1z M52.1,5.6L51.8,9l-8.1,3.5l0,0h7.8l-0.9,10.3l-6.9,2l-6.9-2.1
	l-0.5-5.2h3.4l0.2,2.7l3.7,0.9l3.8-1.1l0.3-4.3l-11.7,0v0l0,0l-0.2-3.3l7.9-3.3L44.1,9h-8.6l-0.4-3.3H52.1z"/>
</svg>
