<svg xmlns="http://www.w3.org/2000/svg" width="46.521" height="35.874" viewBox="0 0 46.521 35.874"><g transform="translate(-0.906 -3)"><path d="M24.167,34.157C11.32,34.157.906,27.182.906,18.578S11.32,3,24.167,3,47.427,9.975,47.427,18.578,37.013,34.157,24.167,34.157Zm3.56-25.066c-9.764,0-17.68,4.768-17.68,10.65s7.916,10.65,17.68,10.65,16.97-3.26,16.97-10.65S37.491,9.091,27.727,9.091Z" fill="#c3272e" fill-rule="evenodd"/><path d="M314.258,167.393a17.514,17.514,0,0,1,2.226.839,4.3,4.3,0,0,1,1.129.806,3.048,3.048,0,0,1,.516.742l5.548,9.355-8.968,0-4.193-7.875a10.138,10.138,0,0,0-1.387-1.9,1.46,1.46,0,0,0-1.065-.484h-2.131l0,10.256-7.935,0v-26.2h15.935s7.258.131,7.258,7.036S314.258,167.393,314.258,167.393Zm-3.452-8.772-4.8,0,0,4.455,4.806,0a2.2,2.2,0,0,0,2.226-2.266A2.072,2.072,0,0,0,310.806,158.621Z" transform="translate(-277.927 -140.265)" fill="#c3272e" fill-rule="evenodd"/></g></svg>