<svg xmlns="http://www.w3.org/2000/svg" width="20.301" height="26.002" viewBox="0 0 20.301 26.002"><path d="M24.4,14.8l-.2-.3a4.048,4.048,0,0,0-2.3-4c.4-.1.8-.2.9-.7.7-.2.8-.5.9-.8a1.156,1.156,0,0,0,.7-1,.81.81,0,0,0,.4-.9,1.08,1.08,0,0,0,.3-1A.919.919,0,0,0,25.2,5c.3-.6,0-1.2-.8-1.1-.3-.5-1.1-.4-1.2-.4-.1-.2-.3-.3-.8-.2a1.235,1.235,0,0,0-1.3-.1c-.5-.4-.8-.1-1.1,0-.6-.2-.7.1-1,.2-.6-.1-.8.2-1.1.5h-.3A4.4,4.4,0,0,0,16,6.1a3.6,3.6,0,0,0-1.6-2.2h-.3c-.3-.3-.5-.6-1.1-.5-.3-.1-.4-.4-1-.2a1.472,1.472,0,0,0-.7-.2c-.1,0-.2.1-.4.2a.892.892,0,0,0-1.1.1.769.769,0,0,0-.8.2c-.1,0-.9-.1-1.2.4-.9-.1-1.2.5-.9,1.1-.2.3-.3.5.1,1.1-.2.2-.1.6.3.9a.864.864,0,0,0,.4,1c-.1.5.5.8.6,1,.1.3.2.6.9.8.1.5.5.6.9.7a4,4,0,0,0-2.3,4l-.2.3a4.063,4.063,0,0,0-.7,6,9.756,9.756,0,0,0,.5,1.8,4.348,4.348,0,0,0,2.7,3.5,8.206,8.206,0,0,0,2.6,1.5,4.365,4.365,0,0,0,6.4,0,8.206,8.206,0,0,0,2.6-1.5,4.338,4.338,0,0,0,2.7-3.5c.2-.6.4-1.1.6-1.8a3.856,3.856,0,0,0-.6-6Zm-1.3-.4c-.1,1-4.9-3.3-4.1-3.4C21.3,10.6,23.2,11.9,23.1,14.4ZM17.8,4.5c0,.2.1.3.1.4.3-.3.5-.6.8-.9,0,.2-.1.3.1.5a1.835,1.835,0,0,1,.8-.7c-.2.3,0,.4.1.5a4.394,4.394,0,0,1,1-.6c-.1.2-.3.3-.1.5a3.452,3.452,0,0,1,1.2-.5c-.1.2-.4.3-.3.5.3-.1.7-.2,1.1-.3-.2.2-.4.3-.2.4a1.9,1.9,0,0,1,1.3-.1l-.3.3h1.2a2.52,2.52,0,0,0-.5.9h.5c-.2.6-.6.7-.7.9.1.1.3.1.6,0a3.49,3.49,0,0,1-.8.9c.1.1.2.1.5,0-.3.3-.6.5-.9.8.1.1.3.1.5.1a4.839,4.839,0,0,1-1.2.7c.1.2.3.1.4.1a4.127,4.127,0,0,1-1.2.5.513.513,0,0,0,.4.2c-.5.3-1.2.1-1.4.3,0,.1.2.2.3.3-.8,0-2.9,0-3.3-1.6a16.483,16.483,0,0,1,4.7-3.2,16.6,16.6,0,0,0-5.1,2.7c-1.6-.8-.5-2.8.4-3.6ZM16,10.3c1.2,0,2.7.9,2.7,1.8,0,.8-1.1,1.4-2.7,1.4s-2.7-.8-2.7-1.5S14.6,10.3,16,10.3ZM9.9,9.7a.517.517,0,0,0,.4-.2A3.9,3.9,0,0,1,9,8.9a.925.925,0,0,0,.5-.1,7.781,7.781,0,0,1-1.2-.7A.743.743,0,0,0,8.8,8c-.3-.2-.6-.5-.9-.7h.5a7.3,7.3,0,0,1-.8-1,.643.643,0,0,0,.6,0c-.1-.2-.6-.3-.8-.8h.5a3.737,3.737,0,0,0-.4-.9H8.7l-.3-.4a2.665,2.665,0,0,1,1.3.1c.2-.1,0-.3-.2-.4.4.1.8.2,1.1.3.2-.2-.1-.3-.3-.5a2.282,2.282,0,0,1,1.2.5c.2-.2,0-.3-.1-.5a4.317,4.317,0,0,1,1,.6.393.393,0,0,0,.1-.5,4.52,4.52,0,0,1,.7.7c.2-.1.1-.3.1-.5a6.862,6.862,0,0,1,.8.9c.1,0,.1-.2.1-.4.8.8,2,2.8.3,3.6A14.61,14.61,0,0,0,9.4,5.4a16.544,16.544,0,0,1,4.7,3.2c-.4,1.6-2.5,1.7-3.3,1.6.2-.1.3-.2.3-.3-.1-.1-.7,0-1.2-.2Zm2.8,1.2c.8.1-4,4.4-4.1,3.4C8.5,11.9,10.4,10.5,12.7,10.9ZM7.6,20.4a3.138,3.138,0,0,1,.6-5C9.5,15,8.7,20.8,7.6,20.4Zm4.6,5c-.7.4-2.3.2-3.4-1.4-.8-1.4-.7-2.8-.1-3.2.8-.5,2.1.2,3,1.3.8.9,1.2,2.7.5,3.3Zm-1.3-6.1a3.02,3.02,0,0,1-.5-4.1c1-1.4,2.7-2,3.9-1.2a3.021,3.021,0,0,1,.5,4.1,2.849,2.849,0,0,1-3.9,1.2ZM16,28.2a3.2,3.2,0,0,1-2.9-1.6c0-.6,1.8-1.1,3-1.1,1.2-.1,2.8.4,2.8,1,0,.4-1.5,1.7-2.9,1.7Zm3-6.4a2.8,2.8,0,0,1-2.9,2.7,2.891,2.891,0,0,1-3-2.7A2.8,2.8,0,0,1,16,19.1a2.829,2.829,0,0,1,3,2.7ZM17.2,18a2.94,2.94,0,0,1,.5-4.1,2.855,2.855,0,0,1,3.9,1.2,3.015,3.015,0,0,1-.5,4.1A3.038,3.038,0,0,1,17.2,18Zm6,6c-1.3,1.8-3,1.8-3.6,1.3-.7-.6-.2-2.6.8-3.7,1-1.2,2.2-2,2.9-1.4a3.7,3.7,0,0,1-.1,3.8Zm.9-3.7c-1.1.5-2-5.3-.6-5A3.14,3.14,0,0,1,24.1,20.3Z" transform="translate(-5.872 -2.998)"/></svg>