<svg xmlns="http://www.w3.org/2000/svg" width="32.144" height="32.395" viewBox="0 0 32.144 32.395"><path d="M319.193,425.613a37.618,37.618,0,0,0-2.324-12.28l-1.262-3.746-1.714,3.563c-.091.19-.2.377-.3.554a16.071,16.071,0,1,0,5.616,12.2C319.207,425.808,319.195,425.712,319.193,425.613Zm-22.766,11.913a1.214,1.214,0,1,1-.18-1.689A1.2,1.2,0,0,1,296.427,437.525Zm19.069-4.737c-2.511,3.462-6.956,3.645-11.139,3.571h-7.009c3.56-1.281,5.677-1.586,7.842-2.733a17.883,17.883,0,0,0,8.941-11.708c-1.551,4.691-6.255,8.724-10.541,10.365a69.682,69.682,0,0,1-8.239,2.206l-.215-.116c-3.61-1.817-3.718-9.9,2.844-12.51,2.873-1.145,5.623-.516,8.724-1.281a13.682,13.682,0,0,0,8.71-6.735C317.16,419.208,319.262,427.6,315.5,432.788Z" transform="translate(-287.062 -409.587)" fill="#c3272e"/></svg>