<svg xmlns="http://www.w3.org/2000/svg" width="30" height="30" viewBox="0 0 30 30"><g transform="translate(-533 -364)" style="isolation:isolate"><path d="M548.616,375.791a1.813,1.813,0,0,0-.074-.539.4.4,0,0,0-.4-.311.42.42,0,0,0-.423.285,1.354,1.354,0,0,0-.086.535V380.8a2.019,2.019,0,0,0,.094.673.4.4,0,0,0,.435.286.37.37,0,0,0,.372-.312,2.87,2.87,0,0,0,.08-.716c0-.807,0-1.614,0-2.421Q548.615,377.05,548.616,375.791Z" fill="#c3272e" style="isolation:isolate"/><path d="M560.348,364h-24.7A2.652,2.652,0,0,0,533,366.652v24.7A2.652,2.652,0,0,0,535.652,394h24.7A2.652,2.652,0,0,0,563,391.348v-24.7A2.652,2.652,0,0,0,560.348,364Zm-15.591,18.268a1.945,1.945,0,0,1-1.727,1.4,4.3,4.3,0,0,1-1.417-.066,2.063,2.063,0,0,1-1.662-1.819,11.6,11.6,0,0,1-.089-2.006c0-.093.042-.1.119-.1.6,0,1.211,0,1.816,0,.122,0,.135.052.135.152,0,.41,0,.82,0,1.23a1.114,1.114,0,0,0,.074.42.43.43,0,0,0,.48.286.37.37,0,0,0,.4-.351,2.072,2.072,0,0,0-.451-1.828c-.5-.544-1.034-1.064-1.563-1.585a3.236,3.236,0,0,1-.863-3.39,2.052,2.052,0,0,1,1.968-1.584,4.223,4.223,0,0,1,1.128.062,2.078,2.078,0,0,1,1.717,1.77,6.194,6.194,0,0,1,.126,1.1c.006.135-.04.163-.164.16-.3-.008-.611,0-.917,0s-.587-.01-.879,0c-.162.009-.2-.05-.19-.2.009-.175,0-.352-.005-.527a.414.414,0,0,0-.429-.453.437.437,0,0,0-.492.439,1.166,1.166,0,0,0,.319.836c.28.336.618.616.928.921.334.329.679.646,1,.993a3.315,3.315,0,0,1,.89,2.31A5.454,5.454,0,0,1,544.757,382.268Zm6.224,1.324c-.2.322-.381.651-.559.984-.062.115-.108.123-.214.052-.469-.316-.946-.621-1.417-.935a.31.31,0,0,0-.271-.057,2.444,2.444,0,0,1-1.216-.035,2.214,2.214,0,0,1-1.69-1.952,4.873,4.873,0,0,1-.067-.836c0-.833,0-1.666,0-2.7.018-.792-.03-1.781.023-2.77a3,3,0,0,1,.152-.783,2.1,2.1,0,0,1,1.585-1.463,3.555,3.555,0,0,1,1.606-.016,2.211,2.211,0,0,1,1.776,2.023,5.188,5.188,0,0,1,.043.682q0,2.46,0,4.92a3.5,3.5,0,0,1-.53,2.1c-.062.088,0,.11.053.144.22.14.436.285.66.417C551.016,383.432,551.054,383.473,550.981,383.592Zm5.018-.136c0,.109-.03.146-.142.146-1.328,0-2.656-.005-3.984,0-.177,0-.141-.107-.141-.2q0-2.529,0-5.058c0-1.68,0-3.36,0-5.039,0-.165.043-.2.2-.2q.859.015,1.718,0c.159,0,.189.05.189.2,0,2.76,0,5.52-.009,8.281,0,.2.054.246.248.241.585-.013,1.171,0,1.757-.007.126,0,.168.03.166.161C555.992,382.467,555.994,382.961,556,383.456Z" fill="#c3272e" style="isolation:isolate"/></g></svg>