<svg xmlns="http://www.w3.org/2000/svg" viewBox="0 0 67.58 72"><polygon points="57.45 18.14 64.89 23.51 64.89 15.9 57.41 7.14 57.41 18.1 57.45 18.11 57.45 18.14" fill="#c3272e"/><polygon points="43.12 72 57.41 64.85 57.41 7.12 43.1 0 43.12 72" fill="#c3272e"/><polygon points="22.77 72 8.48 64.85 8.48 7.12 22.78 0 22.77 72" fill="#c3272e"/><rect x="22.78" width="20.32" height="72" fill="#c3272e"/><polygon points="57.41 53.9 57.41 64.85 64.89 56.09 64.89 48.49 57.45 53.88 57.41 53.9" fill="#c3272e"/><polygon points="57.41 49.27 57.45 49.26 64.89 45.26 64.89 37.61 57.41 38.3 57.41 49.27" fill="#c3272e"/><polygon points="57.45 22.76 57.41 22.75 57.41 33.68 64.89 34.38 64.89 26.74 57.45 22.76" fill="#c3272e"/><polygon points="64.89 34.38 57.41 33.68 43.1 33.11 32.94 33.11 22.78 33.11 8.48 33.68 8.48 22.78 8.46 22.78 8.48 22.75 22.78 19.44 32.94 19.44 43.1 19.44 57.41 22.75 62.67 25.55 62.67 23.75 64.89 23.51 57.41 18.1 43.1 13.66 32.94 13.66 22.78 13.66 8.48 18.1 8.48 7.14 1 15.9 1 23.56 1.06 23.51 3.22 23.75 3.22 25.58 1 26.77 1 34.39 1.06 34.38 3.22 34.41 3.22 37.61 1.35 37.64 1 37.6 1 45.22 3.22 46.42 3.22 48.27 1.09 48.51 1 48.44 1 56.09 8.48 64.85 8.48 53.9 22.78 58.33 32.94 58.33 43.1 58.33 57.45 53.88 64.89 48.52 62.67 48.27 62.67 46.45 57.45 49.26 43.1 52.55 43.1 52.56 32.94 52.56 22.78 52.56 22.78 52.55 8.44 49.26 8.41 49.21 8.48 49.24 8.48 38.3 22.78 38.87 22.78 38.88 32.94 38.88 43.1 38.88 43.1 38.87 57.41 38.3 64.89 37.64 62.67 37.61 62.67 34.41 64.89 34.38" fill="#c3272e" stroke="#fff" stroke-miterlimit="10" stroke-width="2"/></svg>