<svg xmlns="http://www.w3.org/2000/svg" width="36.001" height="32.114" viewBox="0 0 36.001 32.114"><path d="M10.758,30.983a17.427,17.427,0,0,1-3.834-3.57,28.968,28.968,0,0,1-4.83-8.665c-.669-2.033-.9-4.212-1.761-6.165-.9-1.416.155-2.967,1.707-3.418.69-.132,1.908-.785.44-.318-1.317.966-1.444-.878-.095-.993A1.071,1.071,0,0,0,3.33,6.3c-.989-.645,2.4-1.354.694-2.316C2.251,2.064,6.51,1.7,5.46,3.87c-.251,1.673,2.976-.306,2.227,1.625.76.929,2.85.212,2.8,1.514,1.11.075,1.49,1.008,2.53,1.08,1.08.488,3.035.87,3.4,2.087-1.069.847-3.547-1.749-3.666.6.323,3.465.24,7.034,1.507,10.332.6,2,2.053,3.57,3.366,5.127a14.732,14.732,0,0,0,4.691,3.5,19.338,19.338,0,0,0,4.819,1.491c.672-.514,1.86-2.426,2.907-1.62.049.906-2.082,1.895-.1,1.794,1.164-.351,1.971.9,2.929-.228.882,1.045,3.669-.669,3.041,1.47-.849.546-2.088.216-2.938.969-1.4-.7-2.52.627-4.073.459a29.792,29.792,0,0,1-5.226.437c-2.868-.227-5.8-.322-8.526-1.32a17.328,17.328,0,0,1-4.387-2.2Zm2.422,1.05a17.076,17.076,0,0,0,4.612,1.539c2.61.361,5.306.921,7.924.411-1.185-.535-2.412.21-3.593-.382a13.172,13.172,0,0,1-4.375-.265,40.042,40.042,0,0,1-4.938-2.178c-1.915-.7.99.9,1.509,1.027,1.2.68-1.317-.35-1.672-.632-1-.562-1.131-.445-.1.126.208.122.414.249.63.353Zm-2.856-2.019c1.455.538-.006-1.023-.674-.933-.3-.511-1.128-.836-.54-1.11-1.057.366-1.107-1.4-1.605-1.145-1.117-.353-.435-1.6-1.766-2.37-.122-.81-1.323-1.512-1.707-2.733-.169-.624-1.358-2.42-.627-.75a23.536,23.536,0,0,0,2.625,4.361,8.974,8.974,0,0,0,2.828,3.5c.435.417.852,1.055,1.465,1.185Zm-4.189-4.6C6.185,25.194,6.4,25.889,6.135,25.413Zm5.931,5.246C12.389,30.515,11.6,30.479,12.066,30.659Zm.789.288C12.774,30.549,12.495,31.169,12.855,30.947Zm.99.413C14.314,30.911,13.119,31.077,13.845,31.359Zm1.692.945C15.823,31.881,14.622,32.144,15.537,32.3Zm-3.252-2.27C13.016,29.562,11.34,30.028,12.285,30.035Zm.741.369C13.005,30.154,12.762,30.516,13.026,30.4Zm3.7,2.313c.6.375,3.48.825,1.674.154C18.1,32.934,15.058,32.01,16.731,32.716Zm-5.882-4.581C10.791,27.885,9.925,27.858,10.849,28.135Zm1.725,1C13.024,28.827,11.643,28.9,12.574,29.14Zm1.451.889C14.67,29.787,12.979,29.785,14.025,30.03Zm-3.878-2.66c.7.537,2.82.069,1.071-.319-.8-.424-2.59-.714-1.368.255Zm4.86,2.967C15.3,29.842,13.786,30.054,15.007,30.337Zm-1.476-1.174c1.71.485-1.437-1.08-.422-.177l.225.1.195.075Zm2.961,1.712C18.111,30.889,15.03,30.652,16.493,30.874Zm-6.968-4.44C9.462,26.133,9.126,26.46,9.525,26.434Zm9.7,5.976C19.274,31.866,18.7,32.815,19.23,32.41Zm-6.944-4.284C12.189,27.84,11.781,28.115,12.286,28.126ZM9.678,26.245C10.608,26.19,8.406,25.836,9.678,26.245Zm-3.09-2C6.472,23.8,5.577,23.446,6.588,24.247ZM14.7,29.4C14.529,29.2,14.619,29.442,14.7,29.4Zm5.049,3.1C19.734,32.2,19.475,32.61,19.749,32.5Zm-5.5-3.559C14.343,28.556,13.46,28.823,14.253,28.938Zm-3.76-2.388C11.182,26.476,9.384,26.083,10.493,26.55Zm6.363,3.955C17.932,30.078,15.805,30.3,16.855,30.505Zm-3.31-2.245c1.242.159-1.477-.844-.271-.09Zm4.316,2.652c1.16-.693.777,1.623,1.966.195,1.173-.855-1.013,1.06.434.154,1.045-.7,2.59.33,3.566.667.7-.035,1.385.608,2.1.218,1.385-.375-2.709-.555-1.635-1.215a2.63,2.63,0,0,1-2.827-1.253,5.824,5.824,0,0,1-3.775-2.313c-.288-.472.419.066-.249-.7a10.357,10.357,0,0,1-1.86-2.553c-.686-.366-.765-1.444-.835-.036.006-.889-.83-1.488-1.033-1.239,0-.857.894-.427.266-1.06-.135-.888-.58-1.813-.714-2.816-.207-.483-.03-1.517-.71-.423-.248,1.155-.083-1.42.3-.57.505-.868-.18-.765-.21-.645.33-.732.21-1.77-.085-1.374.175-.776.278-2.853-.262-2.484.327-.81.621-3.71-.8-2.6a6.04,6.04,0,0,0-2.045.444c1.479.814-.149.294-.75.165-.078.753-.675.427-1.419.435,1.19.147-.579,1.215-1.261.8-.885.423.765,1.481.018,1.807.091.492-1.358-.179-1.245.96-.859-.361-.117,1.35.313.771,1.463.4,1.029,1.3,1.066,2.156-.239.5-1.177-1.174-.21-1.1-.762-1.24-.843-.448-1.477.128-.148.042,1.618.82.51,1.2.975.15,1,1,1.2,1.545.587.611.466-.675,1.168.06-.444-.654-2.351-1.842-.816-1.461-.008-.659-.278-1.19.194-1.176.465-.843-.488,2.08.563,1.008.289-.128.361-.844.885.067.757.747.273,1.287-.8.6.19.649,1.431.881,1.2,1.9.248.892.592.564.894.513.237.867.37.229.382-.184,1.082.233.828.872,1.167,1.32.745.336-1.068-2.283.213-.789,1.347,1.216.505,1.725-.7,1.53.765-.062,1.012,1.035,1.969,1,.873.416,1.464,2.01-.04,1.346-.522-.469-2.368-1.05-.859-.156a35.875,35.875,0,0,1,3.843,1.84c.96.687,1.377,1.473,1.74,1.629-.807.385-2.434-.309-1.226-.522-.755-.136-1.6-.517-.88.42.615.514,2.175.459,2.456.517-.239.522-.645.564.009.6-.729.39.234.45.3.672ZM16.37,26.7c-.444-.465-.559-1.335-.08-.577C16.536,26.222,17.078,27.543,16.37,26.7Zm4.857,3.086C21.5,29.769,21.236,30,21.227,29.786Zm-5.559-4.224C15.651,24.86,15.828,26.1,15.668,25.562Zm-.483-.649C14.627,23.833,15.89,25.218,15.185,24.912Zm-5.85-4.038C9.662,20.786,9.5,21.435,9.335,20.874ZM13.991,23.4C14.192,22.641,14.228,24.033,13.991,23.4ZM10.7,21.11C10.469,20.693,11.186,21.5,10.7,21.11Zm2.823.906c-.528-1.185.375-.648.117.195ZM8.655,18.768a3.759,3.759,0,0,1-.5-1.878c.114.567,1.206,2.441.535.777-.741-1.4.885.453,1.053.8.076.345-.458-.094-.1.717-.66-.926-.39.51-.991-.417Zm-1.5-1.037C7.212,16.827,7.5,18.351,7.15,17.731Zm.676.233C8.149,17.281,8.374,18.915,7.827,17.964ZM6.2,16.7c-.561-.555-.966-1.069.025-.345.383.015-.849-1.167.091-.375.99.18.489,1.623-.117.72Zm.855-.022C7.38,16.359,7.227,17,7.054,16.681Zm.525.17C7.087,15.925,8.179,17.238,7.579,16.851Zm-1.046-1c-1.629-1.449,2.047.759.266.27ZM11.2,18.563c-.7-.423-.186-2.976.054-1.23.686-.222-.038.9.472.891-.08.709-.309.965-.525.339Zm1.725,1.02C13,18.813,13.073,20.108,12.925,19.583Zm-.3-.3C12.7,18.957,12.634,19.672,12.625,19.285Zm-5.77-3.91c-1.046-1.444,3.041,1.459.67.366C7.278,15.677,6.979,15.653,6.855,15.375Zm3.324,1.763C10.08,15.923,10.4,17.339,10.179,17.138ZM12.7,18.756C12.9,18.063,12.717,19.214,12.7,18.756ZM7.014,14.823c.622-.132,2.577,1.094.781.351C7.6,14.952,7.17,15.054,7.014,14.823Zm5.34,2.663c.066-1.243.372-.743,0,.177ZM7.477,14.391c.253-.372-.674-1.68.134-.469.348.278,1.008.465.424.58.917.809-.223.219-.558-.111ZM12.09,17.1C12.266,15.681,12.245,17.927,12.09,17.1ZM6.948,13.083C7.141,13,7.05,13.341,6.948,13.083Zm1.2.717C8.46,13.149,8.721,14.524,8.151,13.8Zm3.394,1.889C11.542,15.438,11.61,16.052,11.545,15.689Zm-.2-.435C10.878,14.09,11.787,15.868,11.349,15.253Zm-.29-.764C10.98,14.01,11.33,15.094,11.059,14.49Zm.471-.765c-.324-.57.408-2.511.489-1.307-.34.938-.1,1.462.139.2.439-.99-.094,1.955-.63,1.1Zm.483-2.886C12.154,10.667,12.045,11.047,12.013,10.839Zm-.807,15.919C11.014,26.592,11.23,26.865,11.206,26.758Zm1.665.841c.924.239.92-.144.083-.257-.45-.42-1.869-.862-.6-.052.084.213.351.208.514.309ZM9.583,25.417c.51.379,1.92,1.079.726.144.4-.468-.771-.717-.381-1.029-.99-.606-.78-.552-.087-.534-1.191-.531.171-.492.106-.765-.459-.09-2.28-.809-1.207.06-1.089-.555-.259.207-.588.126-1.115-.3.99.847-.177.563.637.506,1.719,1.3.27.535-.192.274,1.036.69,1.338.9Zm1.74,1C13.44,27.1,10.287,25.584,11.323,26.418Zm8.91,5.4C20.263,31.395,19.945,32.175,20.233,31.815Zm.918.386c.487-.472.02.755.809-.116.009-.622-.024-.99-.907-.234-.243.135-.351.71.1.35ZM6.612,23.07C6.462,22.48,5.562,22.485,6.612,23.07Zm.978.642C7.227,23.109,6.294,23.166,7.59,23.712Zm5.565,3.355c.543.482,2.495.354.66.06C13.542,26.724,12.089,26.821,13.155,27.067ZM20.8,31.791C21.639,31.089,19.992,32.1,20.8,31.791Zm1.74,1.194C22.546,32.76,22.182,33.084,22.542,32.985Zm0-.315C23.469,31.689,21.646,32.728,22.543,32.67ZM4.207,21.057c-.789-1.125-.49-1.632-1.253-2.55-.144-.7-1.3-2.3-.6-.609.645.989.837,2.518,1.852,3.159Zm18.045,11.3C23.957,31.257,21.555,31.878,22.253,32.358Zm1.3.51C24.408,32.136,23.013,32.715,23.553,32.868ZM6.323,21.825C6.567,21.462,5.693,21.779,6.323,21.825ZM23.281,32.519c.826-.532-.189-.45-.15.048ZM12.075,25.455C12.045,25.095,11.639,25.485,12.075,25.455Zm.691.4C12.547,25.409,12.429,25.924,12.766,25.854ZM24.607,32.88c1.058-.765-.642-.147-.222.144Zm-.405-.195C25.063,31.962,23.292,33,24.2,32.685Zm2.07,1.377C26.851,33.675,25.569,33.938,26.272,34.062ZM6.853,21.564c.775.174,3.1,1.911,1.728.12-.7-.207-.281-1.924-1-1.62.48.8.4,1.145-.614.639-1.269-.619-.713.306-.465.561C6.168,21.342,6.952,21.558,6.853,21.564Zm-3.534-2.79c.138-.574-1.28-3.16-.669-1.3C2.869,17.868,2.847,18.609,3.319,18.774Zm6.486,4C9.406,22.438,9.786,22.725,9.806,22.773ZM10.79,23C10.79,22.393,9.7,22.755,10.79,23Zm8.523,5.375C19.15,27.958,18.67,28.366,19.313,28.375Zm.41.3C19.662,28.441,19.486,28.719,19.722,28.674ZM23.1,30.8C23.425,30.563,22.7,30.772,23.1,30.8ZM5.085,19.224C6.015,18.864,4.089,18.968,5.085,19.224Zm13.477,8.491C18.552,27.114,17.97,27.865,18.563,27.715ZM4.717,18.369C5.314,18.167,4.165,18.236,4.717,18.369Zm1.733.84C6.439,19.01,6.267,19.284,6.45,19.209Zm21.135,12.96c.77-.156,2.518.39,2.8-.2-.931-.022-3.225-.657-3.333.151l.2.033.33.02ZM7,19.347C7.016,18.736,6.526,19.325,7,19.347ZM2.445,16.185C2.238,15.022,1.657,16.008,2.445,16.185Zm1.086.273C3.544,16.084,2.536,16.122,3.531,16.458Zm.621.3C3.972,16.617,4.011,16.946,4.152,16.763Zm3.907,2.505C8.242,19.1,7.624,19.143,8.059,19.268Zm-4.32-3.192C3.634,15.2,2.479,15.944,3.739,16.076ZM1.51,14.63C1.48,14.225,1.294,14.783,1.51,14.63Zm.332-.25C1.788,13.9,1.557,14.439,1.842,14.379Zm1.83,1.094c.775-.3-1.41-.63-.158-.059Zm24.5,15.134C28.668,30.152,27.543,30.465,28.173,30.606Zm2.961,1.535C31.332,31.553,30.633,32.217,31.134,32.141ZM3.859,14.514C3.942,13.946,3.246,14.627,3.859,14.514Zm-2.6-1.745c-.14-.8-.12-2.211,1.218-1.734-1.786.354,1.236,2.22.855.747.75.036,1.47-.444,1.074.285C5.883,11.9,6.909,10.621,8.339,10.8a15.555,15.555,0,0,0,3.531-.707c.987-.072,1.936-1.134,1.395-1.762a15.288,15.288,0,0,0-4.24.349c-1.647.342-3.144.993-4.807,1.273-1.62.217.326.6-.138.684-.846.294,1.008.492-.109.8-.69-.132-1.41-.369-1.115-1.1-1.553.2-2.918.844-1.691,2.424h.092ZM5,10.865c.365-1.341,1.95,1.1.6.177a.858.858,0,0,0-.6-.179Zm.07-.651C5.592,9.823,5.346,10.432,5.067,10.214Zm.668.012c.048-.616,1.527.327.245.222Zm.912-.368C6.98,9.468,6.743,10.2,6.647,9.858ZM6.881,9.7c.555-.666,3.143-.424,1.248-.064-.507-.382-.9.225-1.248.064Zm3.376-.521C10.173,7.36,11.934,9.829,10.257,9.181Zm.958-.006c.349-.918,1.359-.368.162-.184C11.4,9.089,11.341,9.465,11.215,9.175ZM3.483,14.043C4.529,13.4,2.372,13.488,3.483,14.043Zm.772.216C4.623,13.869,3.459,14.1,4.255,14.259Zm-2.28-1.62C2.574,12.181,1.269,12.465,1.975,12.639Zm30.9,19.335C32.9,31.441,32.424,32.214,32.88,31.974ZM29.74,29.83C29.83,29.217,29.335,29.885,29.74,29.83Zm4.005,2.351c.835,0,2.532-.26.713-.26-.285.045-1.664.036-.714.26Zm-28.81-18.3c.676-.045,1.059-.745-.13-.7-1.845-.191,1.626.63-.237.4-.251.165.354.356.367.311Zm.6.3C5.46,13.749,5.322,14.415,5.532,14.184Zm.7-1.885C6.532,11.934,5.832,12.2,6.237,12.3ZM3.987,8.536c1.209-.411,2.86-.872,3.431.2-.581-.7-.234-1.386.315-.365.774,1.033,1.163-.47.657-.818.575.714,1.229,1.052.385.045.915-1.1-1.834.146-2.46.132-.3.135-3.106.715-2.326.8ZM4.7,7.182c.69-.521,2.382.309,1.3-.517C5.886,6.572,3.612,7.292,4.7,7.182Zm2.511.1C8.013,7.3,6.86,6.2,7.82,6.7,7.662,6.186,6.7,6.09,6.231,5.885,5.966,6.356,6.771,7.292,7.206,7.286Zm-2.07-2.28C5.415,4.628,4.647,5.2,5.136,5.005Zm1.026.246c1.3-.173-.33-.56-.261-.015Zm-1.916-1.5c-.915-1.194,1.719.2.791-1.05C4.254,2.079,3.5,3.4,4.247,3.751Zm11.738,6.322c.42-.744-1.733-1-.282-.262C15.836,9.856,15.806,10.126,15.984,10.074Z" transform="translate(0 -2.386)" fill="#c3272e"/></svg>