<svg xmlns="http://www.w3.org/2000/svg" width="54.351" height="20.306" viewBox="0 0 54.351 20.306"><g transform="translate(-0.001 -0.001)"><path d="M4.1,6.149c-.106,0-.132-.053-.079-.132L4.579,5.3A.379.379,0,0,1,4.87,5.17h9.447c.106,0,.132.079.079.159l-.45.688a.4.4,0,0,1-.265.159L4.1,6.149Zm-4,2.435c-.106,0-.132-.053-.079-.132l.556-.714a.379.379,0,0,1,.291-.132H12.941a.121.121,0,0,1,.132.159l-.212.635a.231.231,0,0,1-.238.159Zm6.4,2.435c-.106,0-.132-.079-.079-.159L6.8,10.2a.351.351,0,0,1,.265-.159h5.292c.106,0,.159.079.159.185l-.053.635a.2.2,0,0,1-.185.185l-5.769-.027ZM33.98,5.673,29.533,6.837c-.4.106-.423.132-.767-.265a3.515,3.515,0,0,0-1.244-1.005,4.6,4.6,0,0,0-4.79.4,5.628,5.628,0,0,0-2.7,5.028,4.149,4.149,0,0,0,3.573,4.155A4.885,4.885,0,0,0,28.1,13.4c.238-.291.45-.609.714-.979H23.712c-.556,0-.688-.344-.5-.794.344-.82.979-2.2,1.35-2.884a.714.714,0,0,1,.662-.423h9.632c-.053.714-.053,1.429-.159,2.143a11.285,11.285,0,0,1-2.17,5.187,11.025,11.025,0,0,1-7.542,4.5A9.375,9.375,0,0,1,17.863,18.4,8.306,8.306,0,0,1,14.5,12.527a10.386,10.386,0,0,1,2.249-7.754A11.743,11.743,0,0,1,24.162.2a9.118,9.118,0,0,1,7.013,1.3,8.3,8.3,0,0,1,3.07,3.731c.159.238.053.37-.265.45Z" transform="translate(0 0)" fill="#c3272e"/><path d="M166.244,21.214a9.938,9.938,0,0,1-6.457-2.329,8.3,8.3,0,0,1-2.858-5.107,10.1,10.1,0,0,1,2.143-7.992,11.093,11.093,0,0,1,7.41-4.419,9.815,9.815,0,0,1,7.542,1.35,8.237,8.237,0,0,1,3.731,5.9,10.214,10.214,0,0,1-3.043,8.971,12.127,12.127,0,0,1-6.351,3.387c-.714.132-1.429.159-2.117.238Zm6.3-10.691a7.642,7.642,0,0,0-.079-.873,4.359,4.359,0,0,0-5.4-3.519,5.78,5.78,0,0,0-4.631,4.6,4.358,4.358,0,0,0,2.435,5,4.853,4.853,0,0,0,4.313-.159,5.789,5.789,0,0,0,3.361-5.054Z" transform="translate(-123.506 -0.907)" fill="#c3272e"/></g></svg>