<svg xmlns="http://www.w3.org/2000/svg" viewBox="0 0 941.9 1432.85"><path d="M110.46,314.61c1.4-1.32,2.86-2.59,4.35-3.81l-4.92,1Z" fill="none"/><path d="M287.83,448.88a460.52,460.52,0,0,0,82.36,142.51,460.83,460.83,0,0,1-80.75-142.84Z" fill="none"/><path d="M69.24,625.51l58-11.61,0-.08h0L73.49,345.65l18-3.6A75.74,75.74,0,0,1,95,334.71l-38.7,7.75-1.92-9.58,48.22-9.66a81.24,81.24,0,0,1,7.41-8.13l-56.91,11.4-.64-3.19-3.19.64L85.09,503.07a40.63,40.63,0,0,0-36.78,48.57l12.15,60.68a40.72,40.72,0,0,0,47.91,31.92l1.42-.32A40.7,40.7,0,0,1,69.24,625.51Z" fill="#359b91"/><polygon points="108.61 305.4 107.33 299.01 49.85 310.52 51.35 318 51.13 316.91 108.61 305.4" fill="#359b91"/><path d="M91.47,342.05l-18,3.6,53.7,268.17h0l0,.08-58,11.61a40.69,40.69,0,0,0,67.34,2L87.5,382.44A69.85,69.85,0,0,1,91.47,342.05Z" fill="#61c6c6"/><path d="M83.71,181,85,187.24l1.28,6.39h0l1.92,9.58,1.28,6.38.43,2.17,1.49,7.41h0l1.28,6.39h0l1.92,9.58L96,242.49l1.72,8.62h0L99,257.5l.35,1.76,1.57,7.82h0l1.28,6.38,1.92,9.58h0l1.28,6.39h0l.11.56,1.8,9h0l1.28,6.39,1.28,6.39,4.92-1a83.09,83.09,0,0,1,36.28-17.23l19.07-3.82h0l220.53-44.16a24.35,24.35,0,0,1,28.64,19.09l25.61,127.91a24.34,24.34,0,0,1-19.08,28.65L289.44,448.55a460.83,460.83,0,0,0,80.75,142.84C475.32,715.33,642.55,780.11,813.31,747.06l-8.17-38.56-6.67,1.35-9.71-48.23,4.7-.94L778,584.24h0l-7.75-38.54-6-29.55q-6.54,1.1-13,1.79l.12,1.07h0l7.54,68h0l8.58,77.55,4.68-.52L777.5,713l-4.69.52h0l-7,.77h0l-4.63.51-5.41-48.88,4.63-.52L745.67,532l-1.36-12.24h0l-.12-1.14c-4.65.36-9.28.56-13.89.63L733.67,667l4.7-.11,1.12,49.19-16.4.37L722,667.3l4.67-.1-1.78-78.31h0l-1.58-68.33h0l0-1.36c-4.68-.08-9.33-.29-14-.66l-.09,1.42h0l-2.2,34.3-7.17,112.29,4.63.3-3.16,49.09-4.6-.29h0l-7-.45h0l-4.75-.3,3.16-49.09,4.72.3,5-78.63h0L700.07,553l2.24-35.18q-6.9-.76-13.7-2L686,533.07l-7.9,51.75h0l-12,78.3,4.65.71-7.43,48.63-5.41-.83-6.18-.94h0l-4.62-.71,7.43-48.62,4.61.7,18.33-120,3.94-25.8h0l.26-1.69c-4.52-.94-9-2-13.42-3.24l-6.07,24.94L651.8,579.09h0l-18.93,77.68,4.61,1.12-11.65,47.78-6-1.45-5.46-1.34h0l-4.5-1.09L621.53,654l4.5,1.1,27.44-112.63,7.61-31.28h0l.45-1.83c-4.4-1.35-8.74-2.85-13-4.47l-.65,1.93h0l-11.39,33.69-36.1,107,4.37,1.48L589,695.62l-10.33-3.49-.67-.23h0l-4.53-1.53,15.75-46.6,4.5,1.52,25.92-76.84h0l9.63-28.5L642,502.31q-6.32-2.61-12.45-5.6l-.9,2h0L611.87,537l-43.14,98.5,4.25,1.87-19.76,45-8-3.51-2.66-1.17h0l-4.36-1.91,19.77-45,4.32,1.9,33-75.23h0L606.41,532l16.83-38.41q-6-3.15-11.75-6.63L538.26,620.75l4.07,2.23-23.61,43.15-4.08-2.23h0l-6.16-3.38h0l-4.15-2.27,23.61-43.15,4.15,2.27,40-73.07-.05,0,32.29-59,.06,0,1.16-2.11q-5.68-3.69-11.16-7.7l-1.4,2.1h0l-21.56,32.36-62.25,93.47L513,606l-27.27,40.92-3.85-2.57-5.85-3.89h0l-3.94-2.62,27.27-40.93,3.92,2.62,46.88-70.39h0l14.69-22,23.89-35.89q-5.25-4.12-10.25-8.56l-35.35,44.15-8,10h0l-53.45,66.76,3.67,2.94-30.74,38.39L451,622h0l-5.49-4.39h0l-3.64-2.92,30.74-38.39,3.64,2.91,68.29-85.28L571.6,460h0l1.71-2.13q-4.85-4.58-9.41-9.46l-2,2.06,0,0-45.87,48.05,0,0-60,62.88,3.37,3.22-34,35.59L422.14,597h0l-5.09-4.85h0l-3.41-3.25,34-35.59,3.4,3.25L559.16,443.22q-4.29-4.87-8.31-10l-118.29,104,3,3.45-37,32.48-3-3.45h0L391,564.42h0l-3.16-3.59,36.94-32.47,3.15,3.58,66.7-58.64-.06-.08,49.66-43.66.06.08,2.31-2q-3.87-5.28-7.47-10.81l-2.51,1.85h0l-34,25-91.45,67.27,2.76,3.75-39.62,29.14-4.51-6.13-2.41-3.28h0l-2.79-3.8,39.62-29.14,2.79,3.79,72.84-53.57h0l13.43-9.88,42.16-31q-3.31-5.49-6.32-11.21l-137,83.33,2.42,4-42,25.57-8.52-14,42-25.56,2.45,4,78.65-47.86v0L523,395v0l2.84-1.72a223.39,223.39,0,0,1-14.64-39l-36,7.21L458,275.3l203.66-40.79-11.22-56.07,40.72-8.16-9.07-42.82L118.82,240.25,103.47,163.6l-22.35,4.48.64,3.19Z" fill="#3b434c"/><polygon points="51.35 318 49.85 310.52 48.99 306.23 46.65 294.56 46.47 293.63 43.46 278.59 43 276.32 41.54 269.01 40.26 262.62 39.64 259.5 37.06 246.65 36.99 246.28 33.87 230.69 33.3 227.88 30.67 214.72 30.67 214.72 30.39 213.31 27.47 198.75 27.47 198.75 27.26 197.68 22.35 173.2 0 177.68 30.05 327.77 49.22 323.94 52.41 323.3 51.35 318" fill="#3b434c"/><polygon points="92.63 225.56 91.35 219.18 33.87 230.69 36.99 246.28 35.14 237.07 92.63 225.56" fill="#359b91"/><polygon points="86.23 193.63 84.95 187.24 27.47 198.75 30.39 213.31 28.75 205.14 86.23 193.63" fill="#359b91"/><polygon points="25.55 189.17 83.03 177.66 83.71 181.03 81.76 171.27 24.27 182.78 22.35 173.2 79.84 161.69 78.56 155.31 21.08 166.81 19.16 157.23 76.64 145.72 77.54 150.23 74.72 136.14 17.24 147.65 22.35 173.2 27.26 197.68 25.55 189.17" fill="#359b91"/><polygon points="89.43 209.59 88.15 203.21 30.67 214.72 33.3 227.88 31.95 221.1 89.43 209.59" fill="#359b91"/><rect x="40.33" y="256.8" width="58.62" height="6.51" transform="translate(-49.71 18.74) rotate(-11.32)" fill="#359b91"/><polygon points="95.82 241.53 96.02 242.49 94.55 235.14 37.06 246.65 39.64 259.5 38.34 253.04 95.82 241.53" fill="#359b91"/><polygon points="105.42 289.43 104.14 283.05 46.65 294.56 48.99 306.23 47.93 300.94 105.42 289.43" fill="#359b91"/><polygon points="102.22 273.46 100.94 267.08 43.46 278.59 46.47 293.63 44.74 284.97 102.22 273.46" fill="#359b91"/><path d="M56.25,342.46,95,334.71a78.52,78.52,0,0,1,7.6-11.49l-48.22,9.66Z" fill="#61c6c6"/><path d="M108.61,305.4,51.13,316.91l.22,1.09,1.06,5.3.64,3.19L110,315.09l.5-.48-.57-2.82Z" fill="#61c6c6"/><polygon points="107.33 299.01 105.53 289.99 105.42 289.43 105.42 289.43 47.93 300.94 48.99 306.23 49.85 310.52 107.33 299.01 107.33 299.01" fill="#61c6c6"/><polygon points="104.14 283.05 102.22 273.46 44.74 284.97 46.47 293.63 46.65 294.56 104.14 283.05 104.14 283.05" fill="#61c6c6"/><polygon points="100.94 267.08 99.38 259.26 99.02 257.5 41.54 269.01 43 276.32 43.46 278.59 100.94 267.08 100.94 267.08" fill="#61c6c6"/><polygon points="97.74 251.11 96.02 242.49 95.82 241.53 38.34 253.04 39.64 259.5 40.26 262.62 97.74 251.11 97.74 251.11" fill="#61c6c6"/><polygon points="92.63 225.56 92.63 225.56 35.14 237.07 36.99 246.28 37.06 246.65 94.55 235.14 92.63 225.56" fill="#61c6c6"/><polygon points="91.35 219.18 89.86 211.76 89.43 209.59 31.95 221.1 33.3 227.88 33.87 230.69 91.35 219.18 91.35 219.18" fill="#61c6c6"/><polygon points="86.23 193.63 86.23 193.63 28.75 205.14 30.39 213.31 30.67 214.72 30.67 214.72 88.15 203.21 86.23 193.63" fill="#61c6c6"/><polygon points="83.71 181.03 83.03 177.66 25.55 189.17 27.26 197.68 27.47 198.75 27.47 198.75 84.95 187.24 83.71 181.03" fill="#61c6c6"/><polygon points="24.27 182.78 81.76 171.27 81.12 168.08 79.84 161.69 79.84 161.69 22.35 173.2 24.27 182.78" fill="#61c6c6"/><polygon points="19.16 157.23 21.08 166.81 78.56 155.31 77.54 150.23 76.64 145.72 19.16 157.23" fill="#61c6c6"/><polygon points="145.64 208.3 359.6 165.46 355.76 146.3 429.22 131.59 433.05 150.75 676.68 101.97 660.49 25.49 130.29 131.66 145.64 208.3" fill="#3b434c"/><path d="M931.62,1305.65l-369.62,74c-96.93,19.41-191.58-43.65-211-140.58L295.43,961.5l-48.68,9.75,55.58,277.58c24.83,124,145.44,204.34,269.41,179.52l370.16-74.13Z" fill="#ff731e"/><path d="M351,1239.08c19.41,96.93,114.06,160,211,140.58l369.62-74L921,1255.45,534.17,1332.9a10.34,10.34,0,0,1-12.17-8.11L512.63,1278a10.35,10.35,0,0,1,8.12-12.18l386.06-77.31-36.63-172.95-.19,0A33,33,0,0,1,856.5,951L831.9,834.83,281.54,945a80.55,80.55,0,0,1-41.68-2.86l5.86,29.27,1-.2,48.68-9.75Zm100.61,49a44.92,44.92,0,1,1,35.22-52.86A44.92,44.92,0,0,1,451.62,1288ZM431.2,1118.76a33,33,0,0,1,38.87,25.9h0a33,33,0,1,1-38.87-25.9Zm24.25-87.49a33,33,0,1,1-25.9,38.87A33,33,0,0,1,455.45,1031.27Zm30.16,110.27a33,33,0,0,1,64.77-13h0a33,33,0,0,1-64.77,13Zm50.15-126.36h0a33,33,0,1,1-25.9,38.87A33,33,0,0,1,535.76,1015.18ZM540.22,1246a33,33,0,0,1-13-64.77h0a33,33,0,0,1,13,64.77Zm25.71-120.57a33,33,0,0,1,64.77-13h0a33,33,0,0,1-64.77,13ZM616.07,999.1a33,33,0,0,1,38.87,25.9h0a33,33,0,1,1-38.87-25.9ZM620.54,1230a33,33,0,1,1-13-64.77h0a33,33,0,0,1,38.87,25.9h0A33,33,0,0,1,620.54,1230Zm25.7-120.58a33,33,0,0,1,64.77-13h0a33,33,0,0,1-64.77,12.95ZM696.39,983a33,33,0,0,1,38.87,25.9h0A33,33,0,1,1,696.39,983Zm4.46,230.85a33,33,0,0,1-13-64.77h0a33,33,0,0,1,13,64.77Zm25.7-120.58a33,33,0,0,1,64.78-13h0a33,33,0,1,1-64.78,13ZM776.7,966.94a33,33,0,1,1-25.9,38.87A33,33,0,0,1,776.7,966.94Zm4.47,230.85a33,33,0,1,1-13-64.77h0a33,33,0,0,1,13,64.77Zm106.2-55a33,33,0,1,1-38.87-25.9A33,33,0,0,1,887.37,1142.83Zm-54.6-104.48a33,33,0,0,1,38.87,25.89h0a33,33,0,1,1-38.87-25.9ZM801.3,881.17A33,33,0,1,1,775.4,920,33,33,0,0,1,801.3,881.17ZM721,897.25a33,33,0,0,1,38.87,25.9h0A33,33,0,1,1,721,897.25Zm-80.31,16.08a33,33,0,0,1,38.86,25.9h0a33,33,0,1,1-38.87-25.91Zm-80.32,16.09a33,33,0,0,1,38.87,25.89h0a33,33,0,1,1-38.87-25.9ZM480,945.5a33,33,0,0,1,38.86,25.9h0A33,33,0,1,1,480,945.5Zm-80.32,16.08a33,33,0,0,1,38.88,25.9h0a33,33,0,1,1-38.88-25.9Z" fill="#3b434c"/><path d="M412.69,1026.35a33,33,0,0,0,25.91-38.87h0a33,33,0,1,0-25.91,38.87Z" fill="#fff"/><path d="M493,1010.27a33,33,0,0,0,25.91-38.87h0a33,33,0,1,0-25.9,38.87Z" fill="#fff"/><path d="M573.32,994.19a33,33,0,0,0,25.9-38.87h0a33,33,0,1,0-25.9,38.88Z" fill="#fff"/><path d="M653.63,978.1a33,33,0,0,0,25.91-38.86h0a33,33,0,1,0-25.9,38.87Z" fill="#fff"/><path d="M734,962a33,33,0,0,0,25.9-38.87h0A33,33,0,1,0,734,962Z" fill="#fff"/><circle cx="807.78" cy="913.56" r="33.03" transform="translate(-409.39 838.76) rotate(-45)" fill="#fff"/><path d="M405.3,1157.62a33,33,0,1,0,64.77-13h0a33,33,0,0,0-64.77,13Z" fill="#fff"/><path d="M524.47,1167.44a33,33,0,0,0,25.91-38.86h0a33,33,0,1,0-25.91,38.86Z" fill="#fff"/><path d="M604.79,1151.36a33,33,0,0,0,25.91-38.86h0a33,33,0,1,0-25.91,38.87Z" fill="#fff"/><path d="M685.1,1135.28A33,33,0,0,0,711,1096.42h0a33,33,0,1,0-25.91,38.87Z" fill="#fff"/><path d="M765.42,1119.2a33,33,0,0,0,25.91-38.87h0a33,33,0,1,0-25.91,38.87Z" fill="#fff"/><path d="M806.87,1077.21a33,33,0,1,0,64.77-13h0a33,33,0,0,0-64.77,13Z" fill="#fff"/><circle cx="461.93" cy="1063.65" r="33.03" transform="translate(-283.05 174.98) rotate(-16.5)" fill="#fff"/><path d="M548.73,1080a33,33,0,0,0-13-64.77h0a33,33,0,1,0,13,64.77Z" fill="#fff"/><path d="M629,1063.87a33,33,0,0,0,25.9-38.87h0a33,33,0,1,0-25.9,38.87Z" fill="#fff"/><path d="M709.36,1047.79a33,33,0,0,0,25.9-38.87h0a33,33,0,1,0-25.9,38.87Z" fill="#fff"/><circle cx="783.19" cy="999.32" r="33.03" transform="translate(-450.75 1298.38) rotate(-65.54)" fill="#fff"/><path d="M831.12,989.72a33,33,0,0,0,38.87,25.9l.19,0L856.5,951A33,33,0,0,0,831.12,989.72Z" fill="#fff"/><path d="M527.25,1181.26h0a33,33,0,1,0,38.87,25.9A33,33,0,0,0,527.24,1181.26Z" fill="#fff"/><path d="M646.43,1191.08a33,33,0,0,0-38.87-25.9h0a33,33,0,1,0,38.87,25.9Z" fill="#fff"/><path d="M687.88,1149.1h0a33,33,0,1,0,38.88,25.9A33,33,0,0,0,687.87,1149.1Z" fill="#fff"/><path d="M768.2,1133h0a33,33,0,1,0,38.87,25.89A33,33,0,0,0,768.19,1133Z" fill="#fff"/><circle cx="854.99" cy="1149.32" r="33.03" transform="translate(-562.27 941.2) rotate(-45)" fill="#fff"/><path d="M512.63,1278l9.37,46.77a10.34,10.34,0,0,0,12.17,8.11L921,1255.45l-14.17-66.92-386.06,77.31A10.35,10.35,0,0,0,512.63,1278Z" fill="#fff"/><circle cx="442.8" cy="1243.98" r="44.92" transform="translate(-876.73 1195.01) rotate(-68.28)" fill="#fff"/><path d="M281.54,945,831.9,834.83l-18.59-87.77c-170.76,33.05-338-31.73-443.12-155.67a460.52,460.52,0,0,1-82.36-142.51l1.61-.33,136.42-27.31a24.34,24.34,0,0,0,19.08-28.65L419.33,264.68a24.35,24.35,0,0,0-28.64-19.09L170.16,289.75h0l-19.07,3.82a83.09,83.09,0,0,0-36.28,17.23c-1.49,1.22-3,2.49-4.35,3.81l-.5.48a81.24,81.24,0,0,0-7.41,8.13A78.52,78.52,0,0,0,95,334.71a75.74,75.74,0,0,0-3.48,7.34,69.85,69.85,0,0,0-4,40.39l49.08,245.09,51.7,258.17c5.44,27.19,26.23,47.87,51.58,56.48A80.55,80.55,0,0,0,281.54,945Z" fill="#ff731e"/><path d="M661.65,234.51,458,275.3l17.27,86.22,36-7.21a223.39,223.39,0,0,0,14.64,39L626.67,332l3.65,6L529.08,399.59q3,5.71,6.32,11.21l96.11-70.69,4.16,5.66-96.55,71q3.58,5.54,7.47,10.81l90.65-79.7,4.64,5.28-91,80q4,5.13,8.31,10l84.28-88.34,5.08,4.85-84.61,88.69q4.58,4.88,9.41,9.46l77.1-96.29,5.49,4.39-77.39,96.65q5,4.44,10.25,8.56l69.05-103.68,5.85,3.89-69.3,104.07q5.46,4,11.16,7.7l60.38-110.33,6.16,3.37-60.58,110.7q5.78,3.49,11.75,6.63l50.88-116.18,6.43,2.82-51,116.53q6.12,3,12.45,5.6l40.86-121.12,6.66,2.24-41,121.46c4.29,1.62,8.63,3.12,13,4.47L692,384.28l6.83,1.66L668.29,511.32c4.43,1.21,8.9,2.3,13.42,3.24l19.55-128,7,1.06-19.6,128.31q6.79,1.18,13.7,2l8.29-129.91,7,.45-8.3,130.15c4.63.37,9.28.58,14,.66l-3-130.73,7-.16,3,130.91c4.61-.07,9.24-.27,13.89-.63L729.78,388.32l7-.77,14.42,130.39q6.51-.71,13-1.79l-3.41-16.9L724.55,328l-42.48,8.5Z" fill="#61c6c6"/><path d="M793.46,660.68l-4.7.94,9.71,48.23,6.67-1.35L778.79,584.09l-.78.15Z" fill="#fff"/><path d="M770.22,545.7l-5.76-28.61.14,0-3.77-17.82,3.41,16.9Z" fill="#fff"/><path d="M745.67,532l14.75,133.39-4.63.52,5.41,48.88,4.63-.51h0l7-.77h0l4.69-.52-5.41-48.89-4.68.52L758.83,587c-2.33.26-4.66.5-7,.7Z" fill="#fff"/><path d="M729.78,388.32l14.41,130.27.12,1.14c2.33-.19,4.65-.45,7-.72l-.12-1.07L736.77,387.55Z" fill="#fff"/><path d="M720.29,388.47l3,130.73,0,1.36c2.32,0,4.65,0,7-.09l1.58,68.36q-3.51.07-7,.06l1.78,78.31-4.67.1,1.12,49.19,16.4-.37-1.12-49.19-4.7.11L730.3,519.22l-3-130.91Z" fill="#fff"/><path d="M697.87,587.47l-5,78.63-4.72-.3L685,714.89l4.75.3h0l7,.45h0l4.6.29,3.16-49.09-4.63-.3L707,554.26l-2.18,33.82Q701.37,587.82,697.87,587.47Z" fill="#fff"/><path d="M710.6,387.94l-8.29,129.91L700.07,553l2.16-33.62c2.32.23,4.66.38,7,.55l.09-1.42,8.3-130.15Z" fill="#fff"/><path d="M677.51,542.05l-18.33,120-4.61-.7L647.14,710l4.62.71h0l6.18.94,5.41.83,7.43-48.63-4.65-.71,12-78.3c-2.31-.39-4.62-.8-6.91-1.25Z" fill="#fff"/><path d="M701.26,386.52l-19.55,128-.26,1.69c2.29.46,4.6.86,6.92,1.25L686,533.07l2.62-17.18,19.6-128.31Z" fill="#fff"/><path d="M653.47,542.46,626,655.09l-4.5-1.1-11.65,47.79,4.5,1.09h0l5.46,1.34,6,1.45,11.65-47.78-4.61-1.12,18.93-77.68c-2.26-.6-4.52-1.23-6.76-1.9Z" fill="#fff"/><path d="M692,384.28,661.54,509.36l-.45,1.83c2.25.67,4.49,1.31,6.76,1.91l-5.63,23.16,6.07-24.94,30.56-125.38Z" fill="#fff"/><path d="M619.65,568.45l-25.92,76.84-4.5-1.52-15.75,46.6L578,691.9h0l.67.23L589,695.62,604.76,649l-4.37-1.48,36.1-107L626.2,571C624,570.15,621.83,569.32,619.65,568.45Z" fill="#fff"/><path d="M682.83,381.19,642,502.31,629.27,540l12.06-35.68c2.17.87,4.34,1.75,6.53,2.55l.65-1.93,41-121.46Z" fill="#fff"/><path d="M595.24,557.45l-33,75.23-4.32-1.9-19.77,45,4.36,1.91h0l2.66,1.17,8,3.51,19.76-45-4.25-1.87L611.87,537l-10.33,23.55Q598.38,559,595.24,557.45Z" fill="#fff"/><path d="M674.12,377.36,623.24,493.54,606.41,532l15.94-36.36c2.08,1.07,4.15,2.16,6.27,3.16l.9-2,51-116.53Z" fill="#fff"/><path d="M665.91,372.84,605.53,483.17l-1.16,2.11c2,1.25,3.92,2.5,5.92,3.68L578,548c-2-1.19-4-2.4-5.95-3.65l-40,73.07-4.15-2.27-23.61,43.15,4.15,2.27h0l6.16,3.38h0l4.08,2.23L542.33,623l-4.07-2.23,73.23-133.84,60.58-110.7Z" fill="#fff"/><path d="M550.2,529.12l-46.88,70.39-3.92-2.62-27.27,40.93,3.94,2.62h0l5.85,3.89,3.85,2.57L513,606l-3.87-2.58,62.25-93.47-15.59,23.38Q553,531.27,550.2,529.12Z" fill="#fff"/><path d="M657.82,367.51,588.77,471.19l-23.89,35.89,22.47-33.73c1.86,1.43,3.72,2.85,5.62,4.22l1.4-2.1,69.3-104.07Z" fill="#fff"/><path d="M544.49,493.88,476.2,579.16l-3.64-2.91-30.74,38.39,3.64,2.92h0L451,622h0l3.67,2.94,30.74-38.39-3.67-2.94,53.45-66.76q-2.64-2.31-5.24-4.69Z" fill="#fff"/><path d="M650.42,361.59l-77.1,96.29L571.61,460q2.58,2.4,5.22,4.72l-33.66,42,35.35-44.15L655.91,366Z" fill="#fff"/><path d="M643.44,354.88l-84.28,88.34L451,556.58l-3.4-3.25-34,35.59,3.41,3.25h0l5.09,4.85h0l3.38,3.22,34-35.59-3.37-3.22,60-62.88q-2.42-2.54-4.77-5.13l45.88-48.05c1.56,1.73,3.15,3.43,4.75,5.11l2-2.06,84.61-88.69Z" fill="#fff"/><path d="M637.24,347.9l-90.65,79.7-2.31,2c1.39,1.85,2.83,3.67,4.27,5.48l-49.68,43.67q-2.14-2.71-4.25-5.49l-66.7,58.64-3.15-3.58-36.94,32.47,3.16,3.59h0l4.64,5.28h0l3,3.45,37-32.48-3-3.45,118.29-104,91-80Z" fill="#fff"/><path d="M479.81,451.69,407,505.26l-2.79-3.79-39.62,29.14,2.79,3.8h0l2.41,3.28,4.51,6.13,39.62-29.14-2.76-3.75,91.45-67.27-19,14Q481.67,454.68,479.81,451.69Z" fill="#fff"/><path d="M631.51,340.11,535.4,410.8l-42.16,31,39.55-29.08c1.23,2,2.53,3.95,3.82,5.91l2.51-1.85,96.55-71Z" fill="#fff"/><path d="M626.67,332,525.89,393.31,523.05,395c1,2.1,2.1,4.18,3.21,6.23l-55.91,34q-1.65-3.09-3.23-6.23l-78.65,47.86-2.45-4-42,25.56,8.52,14,42-25.57-2.42-4,137-83.33L630.32,338Z" fill="#fff"/><path d="M629.27,540l-9.63,28.5h0c2.18.87,4.36,1.7,6.55,2.51l10.29-30.44,11.39-33.69h0c-2.19-.8-4.36-1.68-6.53-2.55Z" fill="#ffa100"/><path d="M610.29,489c-2-1.18-4-2.43-5.92-3.68l-.06,0-32.29,59,.05,0c2,1.25,4,2.46,5.95,3.65Z" fill="#ffa100"/><path d="M606.41,532l-11.18,25.49h0q3.13,1.59,6.3,3.1L611.87,537l16.77-38.24h0c-2.12-1-4.19-2.09-6.27-3.16Z" fill="#ffa100"/><path d="M661.09,511.19h0l-7.61,31.28L645,577.18c2.24.67,4.5,1.3,6.76,1.9h0l10.42-42.83,5.63-23.16C665.58,512.5,663.34,511.86,661.09,511.19Z" fill="#ffa100"/><path d="M730.28,520.47c-2.33,0-4.66.11-7,.09h0l1.58,68.33h0q3.5,0,7-.06Z" fill="#ffa100"/><path d="M700.07,553l-2.21,34.44h0q3.5.36,7,.61L707,554.26l2.2-34.3h0c-2.33-.17-4.67-.32-7-.55Z" fill="#ffa100"/><path d="M681.45,516.25h0l-3.94,25.8-6.33,41.51c2.29.45,4.6.86,6.91,1.25h0l7.9-51.75,2.38-15.57C686.05,517.11,683.74,516.71,681.45,516.25Z" fill="#ffa100"/><path d="M770.22,545.7,778,584.24h0l.78-.15-14.19-67-.14,0Z" fill="#ffa100"/><path d="M564.88,507.08l-14.69,22h0q2.79,2.14,5.63,4.2l15.59-23.38L593,477.58h0c-1.9-1.37-3.76-2.79-5.62-4.22Z" fill="#ffa100"/><path d="M526.26,401.26c-1.11-2.05-2.17-4.13-3.21-6.23v0l-55.93,34v0q1.58,3.13,3.23,6.23Z" fill="#ffa100"/><path d="M548.55,435.12c-1.44-1.81-2.88-3.63-4.27-5.48l-.06-.08-49.66,43.66.06.08q2.1,2.77,4.25,5.49Z" fill="#ffa100"/><path d="M493.24,441.81l-13.43,9.88h0q1.86,3,3.79,5.93l19-14,34-25h0c-1.29-2-2.59-3.91-3.82-5.91Z" fill="#ffa100"/><path d="M571.61,460h0l-27.11,33.87L529.9,512.11q2.6,2.39,5.24,4.69h0l8-10,33.66-42Q574.19,462.41,571.61,460Z" fill="#ffa100"/><path d="M511.31,493.42q2.35,2.59,4.77,5.13l0,0L562,450.53l0,0c-1.6-1.68-3.19-3.38-4.75-5.11Z" fill="#ffa100"/><path d="M744.31,519.73,745.67,532l6.18,55.77c2.32-.2,4.65-.44,7-.7h0l-7.54-68h0c-2.35.27-4.67.53-7,.72Z" fill="#ffa100"/><polygon points="661.65 234.51 682.07 336.47 724.55 327.97 691.15 170.28 650.42 178.44 661.65 234.51" fill="#359b91"/><polygon points="682.08 127.46 676.68 101.97 433.05 150.75 438.17 176.3 364.72 191.01 359.6 165.46 145.64 208.3 130.29 131.66 660.49 25.49 655.09 0 125.17 106.11 93.24 112.51 103.47 163.6 118.82 240.25 682.08 127.46" fill="#359b91"/><polygon points="355.76 146.3 359.6 165.46 364.72 191.01 438.17 176.3 433.05 150.75 429.22 131.59 355.76 146.3" fill="#61c6c6"/></svg>