<?xml version="1.0" encoding="utf-8"?>
<!-- Generator: Adobe Illustrator 24.1.3, SVG Export Plug-In . SVG Version: 6.00 Build 0)  -->
<svg version="1.1" id="Layer_1" xmlns="http://www.w3.org/2000/svg" xmlns:xlink="http://www.w3.org/1999/xlink" x="0px" y="0px"
	 viewBox="0 0 295 295" style="enable-background:new 0 0 295 295;" xml:space="preserve">
<style type="text/css">
	.st0{fill:#B31221;}
</style>
<g id="Group_46" transform="matrix(0.829, 0.559, -0.559, 0.829, 384.874, -414.837)">
	<path id="Path_3784" class="st0" d="M234.64,546.22c-6.05-13.38,2.55-36.53-7.14-47.15c-9.79-10.73-33.69-4.27-46.3-11.47
		c-12.49-7.13-19.08-31.03-33.46-33.99c-13.87-2.86-29.36,16.33-44.2,17.97s-34.15-13.68-47.06-7.85
		c-13.38,6.05-14.57,30.82-25.19,40.51c-10.73,9.79-35.46,8.73-42.66,21.34c-7.13,12.49,6.34,33.19,3.37,47.57
		c-2.86,13.87-23.58,27.5-21.93,42.34c1.65,14.84,24.85,23.59,30.68,36.5c6.04,13.37-2.55,36.53,7.13,47.15
		c9.79,10.73,33.69,4.27,46.3,11.47c12.49,7.13,19.08,31.03,33.46,33.99c13.87,2.86,29.35-16.33,44.2-17.97s34.15,13.68,47.06,7.85
		c13.38-6.05,14.57-30.82,25.19-40.51c10.73-9.79,35.46-8.73,42.66-21.34c7.13-12.49-6.34-33.19-3.37-47.57
		c2.86-13.87,23.58-27.5,21.93-42.34C263.67,567.87,240.47,559.13,234.64,546.22z M234.1,586.28
		c7.25,64.2-38.92,122.12-103.12,129.38c-0.09,0.01-0.18,0.02-0.26,0.03C66.43,722.77,8.48,676.31,1.28,611.93
		C-5.97,547.72,40.2,489.8,104.4,482.55c0.09-0.01,0.18-0.02,0.27-0.03C168.95,475.44,226.91,521.89,234.1,586.28z"/>
	<path id="Path_3785" class="st0" d="M98.18,592.34c0.05-0.09,0.09-0.17,0.13-0.25l0,0C98.26,592.18,98.22,592.26,98.18,592.34z"/>
	<path id="Path_3786" class="st0" d="M70.72,511.99c-47.52,25.62-65.01,85.39-39.07,133.5s85.49,66.35,133.01,40.73
		s65.01-85.39,39.07-133.5S118.24,486.37,70.72,511.99z M45.7,646.76c-0.04,0.02-0.08,0.04-0.12,0.06
		c-0.89,0.48-2.01,0.19-2.55-0.67c-0.18-0.28-0.35-0.56-0.52-0.84c-0.56-0.91-0.28-2.1,0.63-2.66c0.91-0.56,2.1-0.28,2.66,0.63
		c0.16,0.27,0.33,0.53,0.5,0.8C46.87,644.99,46.6,646.19,45.7,646.76C45.7,646.76,45.7,646.76,45.7,646.76z M33.99,609.63
		c0.04,0.31,0.08,0.62,0.12,0.94c0.17,1.06-0.55,2.05-1.61,2.22c-1.06,0.17-2.05-0.55-2.22-1.61c0-0.03-0.01-0.06-0.01-0.09
		c-0.04-0.33-0.09-0.65-0.13-0.98c-0.13-1.06,0.62-2.03,1.68-2.16C32.89,607.82,33.86,608.57,33.99,609.63L33.99,609.63z
		 M71.84,672.24c-0.59,0.89-1.79,1.14-2.68,0.55l-0.82-0.55c-0.88-0.61-1.11-1.81-0.5-2.69c0.6-0.87,1.78-1.1,2.66-0.52l0.79,0.53
		C72.18,670.15,72.43,671.35,71.84,672.24C71.84,672.24,71.84,672.24,71.84,672.24L71.84,672.24z M106.25,513.55
		c-0.12-1.06,0.65-2.02,1.71-2.14c0,0,0,0,0,0c0.33-0.04,0.66-0.07,0.98-0.1c1.06-0.12,2.02,0.65,2.14,1.71
		c0.12,1.06-0.65,2.02-1.71,2.14c-0.01,0-0.03,0-0.04,0c-0.31,0.03-0.63,0.06-0.94,0.1C107.33,515.38,106.37,514.61,106.25,513.55
		L106.25,513.55z M80.98,518.85c0.3-0.14,0.6-0.27,0.91-0.41c0.98-0.43,2.12,0.02,2.55,1c0.4,0.92,0.03,1.99-0.85,2.47
		c-0.04,0.02-0.09,0.05-0.14,0.07c-0.29,0.13-0.57,0.25-0.86,0.39c-0.97,0.45-2.12,0.02-2.57-0.95
		C79.58,520.44,80.01,519.29,80.98,518.85z M51.12,541.2l0.65-0.74c0.72-0.79,1.94-0.86,2.73-0.14c0.79,0.71,0.86,1.92,0.16,2.71
		l-0.63,0.71c-0.72,0.79-1.95,0.84-2.74,0.12C50.54,543.17,50.46,542,51.12,541.2L51.12,541.2z M37.1,574.09L36.82,575
		c-0.31,1.02-1.39,1.6-2.41,1.3c-1.02-0.31-1.6-1.39-1.3-2.41l0.28-0.95c0.32-1.02,1.4-1.59,2.42-1.28
		C36.84,571.98,37.42,573.06,37.1,574.09L37.1,574.09L37.1,574.09z M106.16,684.67c-0.17,1.06-1.16,1.78-2.21,1.61
		c-0.33-0.05-0.65-0.1-0.98-0.16c-1.05-0.19-1.75-1.2-1.56-2.25c0.19-1.03,1.16-1.73,2.2-1.57l0.94,0.15
		C105.6,682.63,106.32,683.62,106.16,684.67L106.16,684.67z M142.56,681.78c0.24,0.87-0.15,1.79-0.95,2.21
		c-0.13,0.07-0.26,0.12-0.41,0.16c-0.32,0.09-0.64,0.18-0.96,0.26c-1.03,0.27-2.09-0.35-2.36-1.38c-0.27-1.03,0.35-2.09,1.38-2.36
		c0.3-0.08,0.61-0.16,0.91-0.24c1.03-0.29,2.09,0.31,2.38,1.34C142.56,681.77,142.56,681.77,142.56,681.78L142.56,681.78z
		 M174.25,666.84c-0.25,0.21-0.51,0.42-0.76,0.63c-0.1,0.08-0.2,0.15-0.31,0.2c-0.94,0.5-2.12,0.15-2.62-0.79
		c-0.44-0.82-0.24-1.83,0.48-2.41c0.24-0.2,0.49-0.4,0.73-0.6c0.83-0.68,2.05-0.55,2.72,0.28
		C175.16,664.96,175.05,666.16,174.25,666.84L174.25,666.84z M154.38,627.88c-2.92,2.36-6.01,4.52-9.24,6.45
		c-15.91,9.45-26.51,7.19-26.51,7.19c-26.46-4.9-20.33-25.55-20.33-25.55c3.44-16.14-1.75-20.76-1.75-20.76
		c-0.09,0.04-0.19,0.07-0.28,0.11c-11.4,4.57-17.75,0.38-17.75,0.38c-2.15-1.01-3.59-4.66-3.59-4.66c-0.04-0.15-0.06-0.3-0.06-0.45
		c-0.06-1.7,2.33-1.69,2.33-1.69c4.49-0.29,6.06-2.45,6.06-2.45c0.75-1.41,1.21-2.96,1.34-4.55l0.03-0.24
		c-3.19-10.24,2.52-21.13,12.76-24.33c10.24-3.19,21.13,2.52,24.33,12.76c1.51,4.83,1.07,10.06-1.22,14.57l-1.34,3.95
		c5.4-4.64,15.34-4.9,15.34-4.9c1.43-0.04,2.84-0.33,4.17-0.86c1.5-0.7,2.27-2.91,2.67-5.14c0.3-1.81,0.44-3.65,0.41-5.49
		c0.04-5.51,4.24-5.42,4.24-5.42c17.69,3.66,22.15,29.79,22.16,29.78C170.83,614.43,154.38,627.88,154.38,627.88L154.38,627.88z
		 M197.19,637.41l-0.43,0.88c-0.48,0.96-1.64,1.35-2.59,0.87c-0.96-0.48-1.35-1.64-0.87-2.59l0.42-0.85
		c0.46-0.97,1.61-1.38,2.58-0.92c0.97,0.46,1.38,1.61,0.92,2.58C197.2,637.39,197.19,637.4,197.19,637.41L197.19,637.41z
		 M147.23,517.99c-0.34,1.01-1.44,1.55-2.45,1.21c0,0,0,0,0,0c-0.3-0.1-0.6-0.2-0.9-0.3c-1-0.38-1.51-1.49-1.13-2.49
		c0.35-0.94,1.36-1.45,2.33-1.19c0.32,0.1,0.63,0.21,0.94,0.32C147.03,515.88,147.57,516.97,147.23,517.99L147.23,517.99z
		 M195.67,566.87c-0.12-0.29-0.24-0.58-0.36-0.87c-0.42-0.98,0.04-2.12,1.02-2.54c0.98-0.42,2.12,0.04,2.54,1.02
		c0.13,0.3,0.26,0.61,0.38,0.92c0.38,0.92,0,1.97-0.87,2.44c-0.06,0.03-0.12,0.06-0.18,0.09
		C197.21,568.33,196.08,567.86,195.67,566.87L195.67,566.87z M174.56,534.17c0.72-0.79,1.94-0.84,2.73-0.13c0,0,0,0,0.01,0.01
		c0.24,0.22,0.48,0.45,0.72,0.67c0.78,0.73,0.82,1.96,0.09,2.74c-0.73,0.78-1.96,0.82-2.74,0.09l0,0c-0.23-0.22-0.46-0.43-0.69-0.64
		C173.89,536.18,173.83,534.96,174.56,534.17C174.55,534.17,174.56,534.17,174.56,534.17L174.56,534.17z M202.01,601.99
		c0.01-0.31,0.02-0.63,0.03-0.94c0.04-1.07,0.94-1.9,2.01-1.86c1.04,0.04,1.87,0.9,1.86,1.95c-0.01,0.33-0.02,0.66-0.03,0.99
		c-0.04,1.07-0.93,1.9-2,1.87C202.81,603.95,201.97,603.06,202.01,601.99L202.01,601.99z"/>
</g>
</svg>
