<svg xmlns="http://www.w3.org/2000/svg" width="26.037" height="26.036" viewBox="0 0 26.037 26.036"><path d="M1.92,1.909A6.162,6.162,0,0,1,6.292,0H19.961a5.883,5.883,0,0,1,4.155,1.909,5.891,5.891,0,0,1,1.92,4.274V20.037a5.715,5.715,0,0,1-1.823,4.047A6.26,6.26,0,0,1,19.8,26.036H6.368a6.835,6.835,0,0,1-4.448-1.7A6.445,6.445,0,0,1,0,19.668V6.216A5.652,5.652,0,0,1,1.92,1.909Zm6.78,9,8.6,10.914h2.3a2.491,2.491,0,0,0,1.269-.466,2.1,2.1,0,0,0,.694-1.085V14.917a2.05,2.05,0,0,1,1.92-1.9Q21.7,12.367,21.567,11V5.88a2.3,2.3,0,0,0-.694-1.161,1.985,1.985,0,0,0-1.182-.51H17.358V15.275L8.7,4.2H6.281a2.35,2.35,0,0,0-1.356.651A2.741,2.741,0,0,0,4.339,6.4v5.262a2.443,2.443,0,0,1-1.79,1.356,2.144,2.144,0,0,1,1.79,1.475v5.175a2.229,2.229,0,0,0,.586,1.486,1.448,1.448,0,0,0,1.193.542h2.56L8.7,10.914Z" transform="translate(0)"/></svg>