<svg xmlns="http://www.w3.org/2000/svg" width="26.234" height="19.481" viewBox="0 0 26.234 19.481"><path d="M21.564,23.419l.025-.049a.809.809,0,0,0,.058-.128l0-.005a1.268,1.268,0,0,0,.059-.664v.008a1.962,1.962,0,0,0-.257-.681l.005.009L15.645,11.683l-.888-1.552-.882,1.552L8.066,21.908a2.022,2.022,0,0,0-.223.66v.012a1.374,1.374,0,0,0,.087.779l0-.009a.885.885,0,0,0,.055.112l0,0a1.436,1.436,0,0,0,1.367.658H20.165a1.656,1.656,0,0,0,1.4-.7ZM14.756,13.234l5.312,9.345H9.446Zm11.2,8.674L18.29,8.4A1.613,1.613,0,0,0,17,7.535a1.429,1.429,0,0,0-1.248.858l-.992,1.738.882,1.552,1.367-2.418L24.6,22.581H21.709a1.3,1.3,0,0,1-.063.665l0-.009a.844.844,0,0,1-.062.138l0,0-.025.049a1.65,1.65,0,0,1-1.391.7h4.514a1.648,1.648,0,0,0,1.391-.7,1.434,1.434,0,0,0-.117-1.511ZM7.986,23.457a1.081,1.081,0,0,1-.049-.1l0-.007a1.342,1.342,0,0,1-.092-.778v.008h-6.2L10.857,6.364l3.025,5.317.877-1.552L12.122,5.484a1.611,1.611,0,0,0-1.287-.849,1.432,1.432,0,0,0-1.248.86L.253,21.907a1.651,1.651,0,0,0-.082,1.549,1.436,1.436,0,0,0,1.367.658H9.355a1.433,1.433,0,0,1-1.367-.658Z" transform="translate(-0.004 -4.635)"/></svg>