<svg xmlns="http://www.w3.org/2000/svg" width="24.688" height="33.247" viewBox="0 0 24.688 33.247"><path d="M11.694,16.63a6.326,6.326,0,0,1-.129-3.045C12.106,13.584,12.054,15.98,11.694,16.63Zm-.109,3.065a30.11,30.11,0,0,1-1.826,4.071A23.516,23.516,0,0,1,13.8,22.344,8.39,8.39,0,0,1,11.585,19.695Zm-6.05,8.1c0,.052.849-.351,2.244-2.61A8.948,8.948,0,0,0,5.535,27.8ZM15.944,10.39h8.744v21.3a1.547,1.547,0,0,1-1.543,1.558H1.543A1.547,1.547,0,0,1,0,31.688V1.558A1.547,1.547,0,0,1,1.543,0H14.4V8.831A1.555,1.555,0,0,0,15.944,10.39ZM15.43,21.545a6.506,6.506,0,0,1-2.745-3.493c.289-1.2.746-3.026.4-4.169a1.606,1.606,0,0,0-3.073-.442c-.321,1.188-.026,2.864.521,5a61.249,61.249,0,0,1-2.623,5.571c-.006,0-.006.006-.013.006-1.742.9-4.732,2.89-3.5,4.416a1.989,1.989,0,0,0,1.382.649c1.151,0,2.3-1.169,3.928-4.013a36.371,36.371,0,0,1,5.079-1.506,9.672,9.672,0,0,0,4.115,1.266,1.683,1.683,0,0,0,1.267-2.818c-.894-.883-3.491-.63-4.732-.468ZM24.238,6.818,17.937.455A1.534,1.534,0,0,0,16.844,0h-.386V8.312h8.229v-.4A1.561,1.561,0,0,0,24.238,6.818ZM19.474,23.4c.264-.175-.161-.773-2.752-.584C19.107,23.838,19.474,23.4,19.474,23.4Z" fill="#fff"/></svg>