<svg xmlns="http://www.w3.org/2000/svg" width="33.06" height="17.387" viewBox="0 0 33.06 17.387"><path d="M16.53,7.034c8.854,0,15.662,3.73,15.662,7.826s-6.813,7.826-15.662,7.826S.868,18.956.868,14.86,7.681,7.034,16.53,7.034m0-.868C7.4,6.166,0,10.056,0,14.86s7.4,8.694,16.53,8.694,16.53-3.89,16.53-8.694S25.657,6.166,16.53,6.166Zm-5.259,8c-.408,2.092-1.849,1.875-3.621,1.875l.708-3.647C10.321,12.391,11.654,12.179,11.271,14.163Zm-6.24,5.568h1.9l.449-2.314c2.123,0,3.44.155,4.659-.987,1.348-1.24,1.7-3.445.739-4.551a3.023,3.023,0,0,0-2.4-.863H6.72ZM14.624,8.7h1.885l-.449,2.314c1.627,0,3.135-.119,3.864.553.765.7.4,1.6-.429,5.842H17.584c.8-4.1.945-4.442.656-4.752s-.914-.238-2.448-.238l-.971,4.99H12.935L14.624,8.7Zm11.462,5.465c-.413,2.123-1.9,1.875-3.621,1.875l.708-3.647C25.146,12.391,26.468,12.179,26.086,14.163Zm-6.24,5.568h1.9l.449-2.314c2.232,0,3.466.129,4.659-.987,1.348-1.24,1.7-3.445.739-4.551a3.023,3.023,0,0,0-2.4-.863H21.54l-1.694,8.714Z" transform="translate(0 -6.166)"/></svg>