<svg xmlns="http://www.w3.org/2000/svg" width="30.903" height="23.179" viewBox="0 0 30.903 23.179"><path d="M14.575,18.649C14.56,18.678,14.546,18.7,14.575,18.649Zm12.03-4.2a6.333,6.333,0,0,0-2.8.652,5.947,5.947,0,0,1-.628-1.453,3.88,3.88,0,0,1-.053-1.222,10.287,10.287,0,0,1,.367-1.313c0-.053-.068-.319-.69-.324s-1.159.121-1.221.285a5.931,5.931,0,0,0-.256.922,22.374,22.374,0,0,1-1.888,3.636,3.749,3.749,0,0,1-.43-1.062,3.88,3.88,0,0,1-.053-1.222,10.288,10.288,0,0,1,.367-1.313c0-.053-.068-.319-.69-.324s-1.159.121-1.222.285-.13.55-.256.922-1.636,3.733-2.032,4.607c-.2.444-.377.8-.5,1.043-.019.039-.034.063-.043.082.014-.024.024-.048.024-.039-.106.208-.169.324-.169.324v0c-.082.155-.174.295-.217.295a2,2,0,0,1,.014-.961c.227-1.169.763-2.984.758-3.047,0-.034.1-.348-.352-.517a.568.568,0,0,0-.637.106c-.039,0-.068.1-.068.1s.488-2.047-.936-2.047a4.249,4.249,0,0,0-2.732,1.859c-.381.208-1.207.657-2.076,1.135l-1,.55c-.024-.024-.043-.048-.068-.072C5.387,14.492,2.2,13.188,2.331,10.711c.048-.9.362-3.274,6.136-6.152C13.2,2.2,16.982,2.85,17.634,4.289c.937,2.052-2.023,5.872-6.937,6.422a3.7,3.7,0,0,1-3.1-.787c-.256-.285-.295-.3-.391-.246-.159.087-.058.338,0,.488a2.91,2.91,0,0,0,1.776,1.4,9.408,9.408,0,0,0,5.754-.57c2.983-1.149,5.305-4.351,4.624-7.03-.693-2.723-5.209-3.617-9.479-2.1A21.479,21.479,0,0,0,2.6,6.032C.252,8.234-.124,10.151.03,10.952c.55,2.844,4.47,4.7,6.039,6.07-.077.043-.15.082-.217.121-.787.391-3.775,1.956-4.523,3.607-.845,1.874.14,3.216.787,3.4A4.821,4.821,0,0,0,7.31,22.044a5.228,5.228,0,0,0,.464-4.8c0-.014-.014-.024-.019-.039.2-.121.41-.241.618-.362.4-.237.791-.454,1.134-.642A7.5,7.5,0,0,0,9.1,18.253a4.274,4.274,0,0,0,.922,2.979,1.013,1.013,0,0,0,.743.241c.666,0,.966-.55,1.3-1.207.41-.8.773-1.733.773-1.733s-.454,2.521.787,2.521c.453,0,.907-.584,1.111-.884v0s.01-.019.034-.058c.048-.072.072-.116.072-.116v-.014c.183-.314.584-1.033,1.187-2.221.782-1.535,1.53-3.452,1.53-3.452a9.717,9.717,0,0,0,.3,1.246,11.664,11.664,0,0,0,.647,1.449c-.183.251-.295.4-.295.4a.015.015,0,0,0,0,.01c-.145.193-.309.4-.478.6a17.043,17.043,0,0,0-1.449,1.816.493.493,0,0,0,.135.662,1.174,1.174,0,0,0,.758.121,3.348,3.348,0,0,0,1.135-.261,3.969,3.969,0,0,0,.975-.512,2.18,2.18,0,0,0,.937-1.922,4,4,0,0,0-.352-1.362c.053-.077.111-.159.164-.241a25.669,25.669,0,0,0,1.694-2.927,9.717,9.717,0,0,0,.3,1.246,8.518,8.518,0,0,0,.55,1.241,5.308,5.308,0,0,0-1.646,2.129c-.357,1.028-.077,1.492.449,1.6a1.62,1.62,0,0,0,.826-.169,3.837,3.837,0,0,0,1.042-.536A2.333,2.333,0,0,0,24.4,16.987a3.592,3.592,0,0,0-.261-1.13,5.894,5.894,0,0,1,3-.348c2.689.314,3.215,1.994,3.113,2.694a1.785,1.785,0,0,1-.855,1.207c-.188.116-.246.159-.232.246.024.126.111.121.27.092A2.1,2.1,0,0,0,30.9,17.88c.077-1.642-1.5-3.448-4.3-3.433ZM5.881,21.435c-.888.971-2.134,1.338-2.669,1.028-.575-.334-.348-1.762.748-2.8a14.307,14.307,0,0,1,2.1-1.564c.13-.077.319-.193.55-.333.039-.024.058-.034.058-.034.043-.029.092-.053.14-.082a3.854,3.854,0,0,1-.922,3.781Zm6.488-4.413c-.309.758-.96,2.69-1.356,2.588-.338-.087-.546-1.56-.068-3.008A6.66,6.66,0,0,1,12,14.666c.487-.546,1.023-.719,1.149-.5C13.32,14.448,12.562,16.549,12.369,17.022Zm5.36,2.559c-.13.068-.251.111-.309.077s.053-.116.053-.116.671-.719.937-1.048c.155-.193.333-.42.526-.671,0,.024,0,.048,0,.077a2.239,2.239,0,0,1-1.213,1.68Zm4.132-.942c-.1-.068-.082-.295.241-1a3.753,3.753,0,0,1,.917-1.183,1.747,1.747,0,0,1,.092.521,1.7,1.7,0,0,1-1.25,1.661Z" transform="translate(0 -1.125)"/></svg>