<svg xmlns="http://www.w3.org/2000/svg" width="43.998" height="44" viewBox="0 0 43.998 44"><path d="M22,13.75A8.25,8.25,0,1,0,30.25,22,8.263,8.263,0,0,0,22,13.75Zm21.175,6.918L35.037,16.6l2.879-8.628a1.486,1.486,0,0,0-1.882-1.882L27.405,8.972,23.332.825a1.488,1.488,0,0,0-2.664,0L16.6,8.963,7.966,6.084A1.486,1.486,0,0,0,6.084,7.966l2.879,8.628L.825,20.668a1.488,1.488,0,0,0,0,2.664L8.963,27.4,6.084,36.034a1.486,1.486,0,0,0,1.882,1.882l8.628-2.879,4.065,8.138a1.488,1.488,0,0,0,2.664,0l4.065-8.138,8.628,2.879A1.486,1.486,0,0,0,37.9,36.034L35.02,27.405l8.138-4.065a1.49,1.49,0,0,0,.017-2.673Zm-13.4,9.109a11,11,0,1,1,0-15.555A11.012,11.012,0,0,1,29.777,29.777Z" fill="#fff"/></svg>