<svg xmlns="http://www.w3.org/2000/svg" width="35.994" height="36.002" viewBox="0 0 35.994 36.002"><path d="M21.5,18.648c-.828.223-.923.27-1.746.506a3.942,3.942,0,0,0-2.392-.694,7.884,7.884,0,0,1,.368-1.2A5,5,0,0,1,21.5,18.648Zm7.962,10.8A16.194,16.194,0,0,1,26.6,31.731h-.009L21.042,24.81l4.6.5a10.646,10.646,0,0,0,2.711,0c.462-.176,2.944-3.674,2.944-3.674s-7.139-4.514-9.576-7a67.007,67.007,0,0,0-.319-9.719C19.617,6.715,19.382,7,17.59,8.656c-.78-2.532-1.153-3.4-1.934-5.937-2.352,1.933-4.144,5.2-5.43,9.024q-.43.477-.826.984c-.168.236-.345.47-.516.713-.347.489-.675,1.012-.995,1.548-.225.385-.449.78-.657,1.182-.095.168-.187.347-.282.525A76.532,76.532,0,0,0,3.442,25.1a16.2,16.2,0,1,1,26.022,4.348M18,10.036c1.248-1.2,1.427-1.38,2.626-2.533a57.983,57.983,0,0,1-.094,6.3,16.064,16.064,0,0,0-2.072-1.566s-.271-1.6-.461-2.2m5.751,23.2A16.378,16.378,0,0,1,5.125,27.9a.14.14,0,0,0,.009-.059c1.38-5.833,3.087-12.8,5.826-14.865,1.432-2.484,1.847-6.171,4.415-8.1.648,1.932,1.66,5.937,2.355,7.869,3.038,3.039,7.63,6.819,10.719,8.385.318.18.733,1.472.733,1.472L27.945,24.16,14.692,22.83a8.856,8.856,0,0,0-.891-.042,17.771,17.771,0,0,0-2.75.27,9.5,9.5,0,0,1,2.025-2.9,7.445,7.445,0,0,0-2.257-.907,8.944,8.944,0,0,1,1.2-1.707c-.365.131-3.038,1.332-3.311,2.344a14.743,14.743,0,0,1,2.2.73,7,7,0,0,0-1.7,3.918,32.019,32.019,0,0,1,7.408-.229.369.369,0,0,0,.188.045l1.653.046,5.264,8.761.041.068a.018.018,0,0,1-.017.009m6.978-27.96A18,18,0,1,0,36,18,18.03,18.03,0,0,0,30.729,5.272Z" transform="translate(-0.003)" fill="#c3272e"/></svg>